<?xml version="1.0" encoding="utf-8"?>
<!-- (c) ammap.com | SVG map of europeLow -->
<svg xmlns="http://www.w3.org/2000/svg" xmlns:amcharts="http://amcharts.com/ammap" xmlns:xlink="http://www.w3.org/1999/xlink" version="1.1">
    <defs>
        <style type="text/css">
            .land
            {
                fill: #CCCCCC;
                fill-opacity: 1;
                stroke:white;
                stroke-opacity: 1;
                stroke-width:0.5;
            }
        </style>

        <amcharts:ammap projection="mercator" leftLongitude="-169.522279" topLatitude="83.646363" rightLongitude="190.122401" bottomLatitude="-55.621433"></amcharts:ammap>

        <!-- All areas are listed in the line below. You can use this list in your script. -->
        <!--{id:"UA"},{id:"SK"},{id:"SJ"},{id:"SI"},{id:"RU"},{id:"RS"},{id:"RO"},{id:"PT"},{id:"PL"},{id:"NO"},{id:"NL"},{id:"MK"},{id:"ME"},{id:"LV"},{id:"LU"},{id:"LT"},{id:"XK"},{id:"IT"},{id:"IS"},{id:"IE"},{id:"HU"},{id:"HR"},{id:"GR"},{id:"GF"},{id:"GB"},{id:"FR"},{id:"FI"},{id:"ES"},{id:"EH"},{id:"EE"},{id:"DK"},{id:"DE"},{id:"CZ"},{id:"CH"},{id:"BY"},{id:"BG"},{id:"BE"},{id:"BA"},{id:"AT"},{id:"AL"},{id:"GE"},{id:"AZ"},{id:"AM"},{id:"MD"},{id:"SE"},{id:"asia"},{id:"north america"},{id:"south america 1 "},{id:"africa"},{id:"australia"}-->

    </defs>
    <g>
        <path id="UA" title="null" class="land" d="M564.5,292.5l1,0.2l0.7,-1l0.8,0.2l2.9,-0.4l1.8,2.6L571,295l0.2,1.4l2.2,0.2l1,1.9l-0.1,0.9l3.6,1.5l2.1,-0.7l1.7,2h1.6l4.1,1.4v1.3l-1.1,2.2l0.6,2.3l-0.4,1.4l-2.7,0.3l-1.5,1.2l-0.1,1.8l-2.2,0.3l-1.9,1.3l-2.6,0.2l-2.4,1.5l0.2,2.5l1.4,1l2.9,-0.2l-0.5,1.4l-3.1,0.7l-3.8,2.3l-1.5,-0.8l0.6,-1.8l-3.1,-1.2l0.5,-0.8l2.7,-1.3l-0.8,-0.9l-4.4,-1l-0.2,-1.5l-2.6,0.5l-1,2.2l-2.2,3l-1.3,-0.7l-1.3,0.6l-1.2,-0.7l0.7,-0.4l0.5,-1.4l0.8,-1.3l-0.2,-0.7l0.6,-0.3l0.3,0.6l1.7,0.1l0.7,-0.3l-0.5,-0.4l0.2,-0.6l-1,-1l-0.4,-1.7l-1,-0.7l0.2,-1.4l-1.3,-1.1l-1.2,-0.2l-2.1,-1.3l-1.9,0.4l-0.7,0.6h-1.2l-0.7,1l-2.1,0.4l-1,0.6l-1.3,-1h-1.8l-1.7,-0.5l-1.2,0.9l-0.2,-1.1l-1.5,-1.1l0.5,-1.7l0.8,-1.1l0.6,0.2l-0.7,-1.9l2.5,-3.6l1.4,-0.5l0.3,-1.2l-1.4,-3.9l1.3,-0.2l1.5,-1.2l2.2,-0.1l2.8,0.4l3.1,1.1l2.2,0.1l1,0.6l1,-0.8l0.7,1l2.5,-0.2l1.1,0.4l0.2,-2.3l0.9,-1L564.5,292.5z"/>
        <path id="SK" title="null" class="land" d="M528.2,304l0.2,0.3l1.2,-0.6l1.4,1.5l1.7,-0.9l1.3,0.4l2,-0.6l2.7,1.6l-0.8,1.1l-0.5,1.7l-0.6,0.4l-3,-1.3l-0.9,0.2l-0.7,1l-1.3,0.5l-0.3,-0.3l-1.4,0.6l-1.1,0.1l-0.2,0.8l-2.4,0.5l-1,-0.5l-1.4,-1.1l-0.3,-1.5l0.2,-0.5l0.4,-0.9l1.2,0.1l1,-0.4l0.1,-0.4l0.5,-0.2l0.2,-1l0.6,-0.2l0.4,-0.8L528.2,304z"/>
        <path id="SJ" title="null" class="land" d="M544.7,104.5l-6.3,5.4l-5,-3l1.9,-3.4l-1.7,-4.3l5.8,-2.8l1.1,5.2L544.7,104.5zM526.5,77.8l9.2,11.3l-7.1,5.7l-1.6,10.1l-2.5,2.5l-1.3,10.5l-3.4,0.5l-6,-7.6l2.5,-4.6l-4.2,-3.9l-5.5,-11.8l-2.2,-11.8L512,73l1.5,5.6l4,-0.2l1.1,-5.4l4.1,-0.6L526.5,77.8zM546.7,66.3l5.5,5.8l-4.2,8.5l-8.1,1.8l-8.3,-2.6l-0.5,-4.3l-4,-0.3l-3.1,-7.5l8.7,-4.7l4.1,4.1l2.8,-5.1L546.7,66.3z"/>
        <path id="SI" title="null" class="land" d="M514.1,316.5l2.3,0.3l1.4,-0.9l2.5,-0.1l0.5,-0.7l0.5,0.1l0.5,1.4l-2.2,1.1l-0.3,1.6l-1,0.4v1.1l-1.1,-0.1l-1,-0.6l-0.5,0.7l-1.9,-0.1l0.6,-0.4l-0.7,-1.7L514.1,316.5z"/>
        <path id="RU" title="null" class="land" d="M1008.4,215.8l-2.8,3l-4.6,0.7l-0.1,6.5l-1.1,1.4l-2.6,-0.2l-2.1,-2.3l-3.7,-1.9l-0.6,-2.9L988,219l-3.2,0.9l-1.5,-2.4l0.6,-2.6l-3.4,1.6l1.3,3.2l-1.6,2.8l0,0l-3.6,2.9l-3.6,-0.5l2.5,3.4l1.7,5.2l1.3,1.7l0.3,2.5l-0.7,1.6l-5.2,-1.3l-7.8,4.5l-2.5,0.7l-4.3,4.1l-4.1,3.5l-1,2.6l-4,-3.9l-7.3,4.4l-1.3,-2.1l-2.7,2.4l-3.8,-0.8l-0.9,3.6l-3.4,5.2l0.1,2.1l3.2,1.2l-0.4,7.5l-2.6,0.2l-1.2,4.1l1.2,2.1l-4.9,2.5l-1,5.4l-4.2,1.1l-0.8,4.7l-4,4.2l-1,-3.1l-1.2,-6.7l-1.6,-10.6l1.3,-7l2.4,-3.1l0.2,-2.4l4.4,-1.2l5,-6.8l4.8,-5.7l5,-4.6l2.2,-8.4l-3.4,0.5l-1.7,4.9l-7.1,6.4l-2.3,-7.1l-7.2,2l-7,9.6l2.3,3.4l-6.3,1.4l-4.3,0.6l0.2,-3.9l-4.4,-0.8l-3.5,2.7l-8.6,-0.9l-9.3,1.5l-9.1,10.3l-10.8,11.8l4.4,0.6l1.4,3l2.7,1l1.8,-2.4l3.1,0.3l4,5.2l0.1,3.9l-2.2,4.5l-0.2,5.3l-1.3,6.9l-4.2,6l-0.9,2.8l-3.8,4.8l-3.8,4.5l-1.8,2.3l-3.7,2.2H848l-1.8,-1.9l-3.8,2.8l-0.4,1.3l-0.4,-0.7v-1.9l1.4,-0.1l0.4,-4.5l-0.7,-3.4l2.4,-1.4l3.4,0.7l1.9,-3.9l1,-4.5l1.1,-1.5l1.5,-3.8l-4.6,1.2L847,311h-4.3l-1.1,-4l-3.3,-3l-4.9,-1.4l-1,-4.3l-1,-2.7l-1,-1.9l-1.7,-4.6l-2.5,-1.7L822,286l-3.7,0.1l-3.5,0.8l-2.3,2.3l1.5,1.1v2.5l-1.6,1.5l-2.5,4.7v1.9l-4,2.7l-3.4,-1.6l-3.3,0.4l-1.5,-1.5l-1.7,-0.5l-4.1,3.1l-3.7,0.7l-2.6,1.1l-3.5,-0.7h-2.6l-1.7,-2.2l-2.8,-2.1l-2.8,-0.6l-3.5,0.6l-2.7,0.8l-4,-1.8l-0.5,-3.3l-3.3,-1.1l-2.5,-0.5l-3.1,-1.9l-2.9,4.7l1.1,2.6l-2.7,3l-4,-1.1l-2.8,-0.2l-1.9,-2l-2.9,-0.1l-2.4,-1.4l-4.3,2.1l-5.3,3.7l-3,0.7l-1.1,0.4l-1.5,-2.6l-3.6,0.6l-1.2,-1.8l-2,-0.9l-1.3,-2.5l-1.5,-0.8l-4,1.1l-3.9,-2.6l-1.5,2.3l-6.3,-11.6l-3.6,-3.7l1,-1.5l-7,4.5l-2.7,0.3l0.2,-2.6l-3.6,-1.6l-2.9,1.2l-0.9,-5l-5,-1.1l-2.5,2l-7,1.8l-1.4,1.2l-10.5,1.7l-1.3,1.6l2,3.2l-2.7,1.2l0.5,1.2l-2.7,2.2l4.5,3.1l-0.7,2.1l-3.9,-0.2l-0.8,1.3l-3.6,-2.3l-4.5,0.1l-3,1.9l-3.3,-1.8l-6.2,-3.1l-4.4,0.1l-5.8,4.9l-0.3,3.2l-2.9,-2.5l-2.2,4.8l0.8,0.9l-1.6,3.2l2.4,2.8l2.1,-0.1l1.8,2.8l-0.3,2.1l1.4,0.7l-1.3,2.4l-2.7,0.7l-2.8,4.1l2.5,3.7l-0.3,2.6l3.1,4.5l-1.7,1.5l-0.5,1l-1.2,-0.2l-1.9,-2.3l-0.8,-0.1l-1.8,-0.9l-0.9,-1.5l-2.6,-0.8l-1.7,0.6l-0.5,-0.7l-3.8,-1.8l-4.1,-0.6l-2.4,-0.7l-0.3,0.5l-3.6,-3.3l-3.2,-1.5l-2.4,-2.3l2,-0.6l2.3,-3.4l-1.6,-1.6l4.1,-1.7l-0.1,-0.9l-2.5,0.7l0.1,-1.8l1.5,-1.2l2.7,-0.3l0.4,-1.4l-0.6,-2.3l1.1,-2.2v-1.3l-4.1,-1.4h-1.6l-1.7,-2l-2.2,0.7l-3.6,-1.5l0.1,-0.9l-1,-1.9l-2.2,-0.2L571,295l0.7,-0.9l-1.8,-2.6l-2.9,0.4l-0.8,-0.2l-0.7,1l-1,-0.2l-0.7,-2.9l-0.7,-1.6l0.5,-0.4l2.3,0.2l1.1,-1l-0.8,-1.2l-1.9,-0.8l0.2,-0.9l-1.1,-0.9l-1.8,-3.1l0.6,-1.3l-0.3,-2.3l-2.7,-1.2l-1.5,0.6l-0.4,-1.2l-3,-1.3l-0.9,-3l-0.2,-2.5l-1.3,-1.2l1.2,-1.7l-0.8,-5l2,-3.1l-0.4,-1l3.2,-3.1l-2.9,-2.7l6,-7.4l2.6,-3.4l1,-3.1l-4.2,-4.3l1.2,-4.1l-2.5,-4.9l1.9,-5.8l-3.3,-8l2.6,-5.5l-4.3,-5l0.4,-5.4l2.3,-0.7l4.8,-3.2l2.9,-2.8l4.6,4.9l7.7,1.9l10.6,8.6l2.2,3.5l0.2,4.8l-3.1,3.7l-4.6,1.9l-12.5,-5.3l-2.1,0.9l4.6,5.1l0.2,3.1l0.2,6.8l3.6,2l2.2,1.7l0.4,-3.1l-1.7,-2.8l1.8,-2.5l6.8,4.1l2.4,-1.6l-1.9,-4.9l6.5,-6.7l2.6,0.4l2.6,2.4l1.6,-4.8l-2.3,-4.3l1.4,-4.4l-2.1,-4.7l7.8,2.4l1.6,4.2l-3.5,0.9v4l2.2,2.4l4.3,-1.5l0.7,-4.6l5.9,-3.5l9.8,-6.5l2.1,0.4l-2.8,4.6l3.5,0.8l2,-2.6l5.2,-0.2l4.2,-3.2l3.2,4.6l3.2,-5.1l-2.9,-4.6l1.5,-2.7l8.3,2.4l3.9,2.5l10.2,8.8l1.9,-4l-2.8,-4.1l-0.1,-1.7l-3.4,-0.8l0.9,-3.8l-1.5,-6.5l-0.1,-2.7l5.2,-8l1.8,-8.4l2.1,-1.9l7.4,2.5l0.6,5.2l-2.7,7.3l1.7,2.8l0.9,5.9l-0.6,11.1l3.1,4.7l-1.2,5l-5.5,10.2l3.2,1l1.1,-2.5l3.1,-1.8l0.7,-3.6l2.4,-3.5l-1.6,-4.3l1.3,-5.1l-3.1,-0.6l-0.7,-4.4l2.2,-8.3l-3.6,-7l5,-6l-0.7,-6.6l1.4,-0.2l1.5,5.2l-1.1,8.7l3,1.6l-1.3,-6.4l4.7,-3.6l5.8,-0.5l5.2,5.2l-2.5,-7.6l-0.3,-10.3l4.9,-2l6.7,0.4l6.1,-1.3l-2.3,-5.4l3.2,-7l3.2,-0.3l5.5,-5.5l7.4,-1.5l0.9,-3.2l7.4,-1.1l2.3,2.6l6.3,-6.2l5.2,0.2l0.8,-5.2l2.7,-5.3l6.6,-5.3l4.8,4.2l-3.8,3.1l6.3,1.9l0.8,6l2.6,-2.9l8.2,0.2l6.3,5.8l2.2,4.4l-0.7,5.9l-3.1,3.2l-7.4,5.9l-2.1,3.1l3.5,1.4l4.2,2.6l2.5,-1.9l1.4,6.4l1.2,-2.6l4.5,-1.6l9,1.6l0.7,4.6l11.7,1.4l0.2,-7.5l6,1.7l4.5,-0.1l4.5,5.1l1.3,6l-1.7,3.8l3.5,7l4.4,3.5l2.7,-9.2l4.5,4l4.8,-2.4l5.4,2.7l2.1,-2.5l4.6,1.2l-2,-8.4l3.7,-4.1l25.3,6.1l2.4,5.4l7.3,6.6l11.3,-1.6l5.6,1.4l2.3,3.5l-0.3,6l3.5,2.3l3.8,-1.6l5,-0.2l5.3,1.6l5.3,-0.9l4.9,7l3.5,-2.5l-2.3,-5.1l1.2,-3.6l9,2.3l5.8,-0.5l8.1,3.8l3.9,3.4l6.9,5.9l7.3,7.3l-0.2,4.4l1.9,1.7l-0.7,-5.1l7.6,1.1L1008.4,215.8zM880.9,306.2l-2.8,-7.7l-1.2,-4.5l0.1,-4.5l-1,-4.5l-0.7,-3.1l-1.2,0.7l1.1,2.2l-2.6,2.2l-0.2,6.3l1.6,4.4l-0.1,5.9l-0.7,3.2l0.3,4.5l-0.3,4l0.5,3.4l1.8,-3.1l2.1,2.4l0.1,-2.8l-2.6,-4.2l1.7,-6.1L880.9,306.2zM537.9,278.8l-2.9,-0.9l-3.9,1.6l-0.6,2.1l3.5,0.5l5.2,-0.1l-0.2,-1.2l0.3,-1.3L537.9,278.8zM980.1,178.6l3.7,-0.5l2.9,-2.1l0.2,-1.2l-4.1,-2.5h-2.4l-0.4,0.4l-3.6,3.6l0.5,2.7L980.1,178.6zM870.2,151.6l-2.7,3.9l0.5,0.5l5.8,1.1l4.2,-0.1l-0.3,-2.6l-4,-3.8L870.2,151.6zM894.7,142l3.2,-4.2l-7,-2.9l-5.2,-1.7l-0.7,3.6l5.2,4.3L894.7,142zM869.6,140.3l10.3,0.3l2.2,-8.1l-10.1,-6.1l-7.4,-0.5l-3.7,2.2l-1.5,7.8l5.5,7L869.6,140.3zM622.5,166.3l-2.9,2l0.4,4.8l5.1,2.4l0.7,3.8l9.2,1.1l1.7,-0.7l-5.4,-7.1l-0.6,-7.5l4.4,-9.1l4.2,-9.8L648,136l8.6,-5.3l9.9,-5.7l1.9,-3.7l-2,-4.8l-5.5,1.6l-4.8,4.5l-9.3,2.2l-9.3,7.4l-6.3,5.9l0.8,4.9l-6.7,9l2.6,1.2l-5.6,8.3L622.5,166.3zM770,98.3l0.8,-5.7l-7.1,-8.3l-2.1,-1l-2.3,1.7l-5.1,18.6L770,98.3zM605.7,69l3,3.9l3.3,-2.7l0.4,-2.7l2.5,-1.3l3.8,-2.2l1.1,-2.6l-4.2,-3.8l-2.6,2.9l-1.6,4.1l-0.6,-4.7l-4.3,0.2l-5.5,3.1l6.2,0.5L605.7,69zM737,82.1l4.7,5.7l7.8,4.2l6.1,-1.8l0.7,-13.6l-6.5,-16l-5.5,-9l-6.1,4.1l-7.3,11.8l3.8,3.3L737,82.1z"/>
        <path id="RS" title="null" class="land" d="M533.9,320.9l1.7,0.9l0.2,1.6l1.6,1.1l0.9,-0.9l0.7,0.5l-0.6,0.7l0.5,0.7l-0.7,0.9l0.2,1.4l1.4,1.7l-1.1,1.2l-0.5,1.2l0.3,0.4l-0.5,0.5l-1.3,0.1l-1,0.2l-0.1,-0.3l0.3,-0.5l0.3,-0.9h-0.4l-0.5,-0.7l-0.5,-0.2l-0.4,-0.6l-0.5,-0.2l-0.4,-0.5l-0.5,0.2l-0.4,1.3l-0.5,0.3l0.2,-0.3l-1.1,-0.8l-0.9,-0.4l-0.4,-0.5l-0.7,-0.7l0.7,-0.2l0.4,-1.8l-1.4,-1.5l0.7,-1.7h-1l1.1,-1.5l-0.9,-1.1l-0.7,-1.6l2.2,-1l1.8,0.2l1.5,1.6L533.9,320.9z"/>
        <path id="RO" title="null" class="land" d="M539,310.9l1.2,-0.9l1.7,0.5h1.8l1.3,1l1,-0.6l2.1,-0.4l0.7,-1h1.2l0.8,0.4l0.9,1.2l0.9,1.8l1.6,2.4l0.1,1.8l-0.3,1.7l0.5,1.8l1.2,0.7l1.3,-0.6l1.3,0.7l0.1,1l-1.4,0.8l-0.9,-0.4l-0.8,4.7l-1.7,-0.4l-2,-1.4l-3.3,0.9l-1.4,1l-4.1,-0.2l-2.2,-0.6l-1.1,0.3l-0.8,-1.6l-0.5,-0.7l0.6,-0.7l-0.7,-0.5l-0.9,0.9l-1.6,-1.1l-0.2,-1.6l-1.7,-0.9l-0.3,-1.3l-1.3,-1.6l2.2,-0.8l1.7,-2.8l1.3,-2.8L539,310.9z"/>
        <path id="PT" title="null" class="land" d="M450,334.6l1,-1l1.1,-0.5l0.7,1.8h1.6l0.5,-0.5l1.6,0.1l0.8,1.9l-1.3,1v2.9l-0.5,0.5l-0.1,1.7l-1.2,0.3l1.1,2.2l-0.8,2.4l1,1.1l-0.4,1l-1,1.3l0.2,1.2l-1.1,0.9l-1.5,-0.5l-1.5,0.4l0.4,-2.7l-0.3,-2.2l-1.3,-0.3l-0.7,-1.4l0.2,-2.4l1.1,-1.3l0.2,-1.5l0.6,-2.2l-0.1,-1.6l-0.6,-1.3L450,334.6z"/>
        <path id="PL" title="null" class="land" d="M517.5,297l-1.1,-2.9l0.2,-1.6l-0.7,-2.4l-1,-1.6l0.8,-1.2l-0.7,-2.4l1.9,-1.4l4.4,-2.2l3.5,-1.6l2.8,0.8l0.2,1.2l2.7,0.1l3.5,0.6l5.2,-0.1l1.4,0.5l0.7,1.5l0.1,2.1l0.8,1.8v1.9l-1.7,0.9l0.9,2.1v2l1.4,3.9l-0.3,1.2l-1.4,0.5l-2.5,3.6l0.7,1.9l-0.6,-0.2l-2.7,-1.6l-2,0.6l-1.3,-0.4l-1.7,0.9l-1.4,-1.5l-1.2,0.6l-0.2,-0.3l-1.3,-2.1l-2.1,-0.3l-0.3,-1.4l-1.9,-0.5l-0.4,1.1l-1.5,-0.9l0.2,-1.2l-2.1,-0.4L517.5,297z"/>
        <path id="NO" title="null" class="land" d="M554.3,175.6l8.8,6.2l-3.6,2.2l3.1,5.1l-4.8,3.2l-2.3,0.7l1.2,-5.6l-3.6,-3.2l-4.3,2.8l-1.4,5.9l-2.7,3.4l-3,-1.9l-3.7,0.4l-3.1,-4.1l-1.7,2.1l-1.7,0.3l-0.4,5.1l-5.3,-1.2l-0.7,4.2h-2.7l-1.8,5.2l-2.8,7.9l-4.3,9.5l1,2.2l-1,2.6l-2.8,-0.1l-1.8,5.9l0.2,8l1.8,3l-0.9,6.7l-2.3,3.8l-1.2,3.1l-1.9,-3.4l-5.5,6.3l-3.7,1.2l-3.9,-2.7l-1,-5.9l-0.9,-13.3l2.6,-3.9l7.4,-5.2l5.5,-6.6l5.1,-9.3l6.7,-13.8l4.7,-5.7l7.7,-9.9l6.2,-3.6l4.6,0.4l4.3,-7l5.1,0.4L554.3,175.6z"/>
        <path id="NL" title="null" class="land" d="M492.4,286l2.3,0.1l0.5,1.6l-0.7,4.2l-0.7,1.7h-1.7l0.5,4.7l-1.5,-1l-1.8,-2l-2.6,0.9l-2.1,-0.4l1.4,-1.2l2.5,-6.7L492.4,286z"/>
        <path id="MK" title="null" class="land" d="M533.1,334.7h0.4l0.1,-0.8l1.7,-0.6l0.6,-0.1l1,-0.2l1.3,-0.1l1.4,1.2l0.2,2.5l-0.5,0.1l-0.5,0.6l-1.5,-0.1l-1.1,0.8l-1.8,0.3l-1.2,-0.9l-0.4,-1.6L533.1,334.7z"/>
        <path id="ME" title="null" class="land" d="M530.9,332.2l-0.2,-0.7l-1.2,1.9l0.2,1.2l-0.6,-0.3l-0.8,-1.2l-1.2,-0.8l0.3,-0.6l0.4,-2.1l0.9,-0.9l0.5,-0.4l0.7,0.7l0.4,0.5l0.9,0.4l1.1,0.8l-0.2,0.3l-0.5,0.9L530.9,332.2z"/>
        <path id="LV" title="null" class="land" d="M534.4,273.8l0.1,-3.8l1.4,-3.2l2.6,-1.8l2.2,3.9l2.2,-0.1l0.5,-4l2.4,-0.9l1.2,0.6l2.4,1.9h2.3l1.3,1.2l0.2,2.5l0.9,3l-3,1.9l-1.7,0.8l-2.7,-2.4l-1.5,-0.3l-0.4,-1l-2.8,0.5l-4.7,-0.3L534.4,273.8z"/>
        <path id="LU" title="null" class="land" d="M492.3,301.3l0.6,1l-0.2,1.9l-0.8,0.1l-0.6,-0.4l0.3,-2.4L492.3,301.3z"/>
        <path id="LT" title="null" class="land" d="M539.1,282.1l-0.2,-1.2l0.3,-1.3l-1.2,-0.8l-2.9,-0.9l-0.6,-4.2l3.2,-1.5l4.7,0.3l2.8,-0.5l0.4,1l1.5,0.3l2.7,2.4l0.3,2.2l-2.3,1.6l-0.7,2.7l-3,1.8h-2.7l-0.7,-1.5L539.1,282.1z"/>
        <path id="XK" title="null" class="land" d="M533.6,333.9l-0.1,0.8h-0.4l-0.2,-1.4l-0.7,-0.4l-0.6,-1l0.5,-0.9l0.7,-0.3l0.4,-1.3l0.5,-0.2l0.4,0.5l0.5,0.2l0.4,0.6l0.5,0.2l0.5,0.7h0.4l-0.3,0.9l-0.3,0.5l0.1,0.3l-0.6,0.1L533.6,333.9z"/>
        <path id="IT" title="null" class="land" d="M518.9,347.9l-1,2.8l0.4,1.1l-0.6,1.8l-2.1,-1.3l-1.4,-0.4l-3.9,-1.8l0.4,-1.8l3.3,0.3l2.9,-0.4L518.9,347.9zM501.2,337.1l1.7,2.6l-0.4,4.8l-1.3,-0.2l-1.1,1.2l-1.1,-1l-0.1,-4.4l-0.6,-2.1l1.5,0.2L501.2,337.1zM510.1,315.5l4,1l-0.3,2l0.7,1.7l-2.2,-0.6L510,321l0.2,2l-0.3,1.1l0.9,2l2.6,2l1.4,3.2l3.1,3h2.2l0.7,0.8l-0.8,0.7l2.5,1.4l2.1,1.1l2.4,1.9l0.3,0.7l-0.5,1.3l-1.6,-1.7l-2.4,-0.6l-1.2,2.4l2,1.3l-0.3,1.9l-1.2,0.2l-1.5,3.1l-1.2,0.3V348l0.6,-1.9l0.6,-0.8l-1.1,-2.1l-0.9,-1.8l-1.2,-0.5l-0.8,-1.6l-1.8,-0.7l-1.2,-1.5l-2.1,-0.2l-2.2,-1.7l-2.6,-2.5l-1.9,-2.2l-0.9,-3.8l-1.4,-0.5l-2.3,-1.3l-1.3,0.5l-1.6,1.8l-1.2,0.3l0.3,-1.7l-1.5,-0.5l-0.7,-3l1,-1.2l-0.8,-1.5l0.1,-1.1l1.2,0.9l1.4,-0.2l1.6,-1.4l0.5,0.6l1.3,-0.1l0.6,-1.6l2.1,0.5l1.2,-0.7l0.2,-1.7l1.7,0.6l0.3,-0.8l2.8,-0.7L510.1,315.5z"/>
        <path id="IS" title="null" class="land" d="M434.7,212.4l-0.6,4.5l3.2,4.6l-3.6,5l-8.1,4.4l-2.4,1.2l-3.7,-0.9l-7.8,-2l2.8,-2.8l-6.1,-3.2l5,-1.3l-0.1,-2l-5.9,-1.6l1.9,-4.5l4.2,-1l4.4,4.7l4.3,-3.8l3.5,2l4.6,-3.7L434.7,212.4z"/>
        <path id="IE" title="null" class="land" d="M458,284.3l0.5,3.4l-2.1,4.1l-5,2.7l-4,-0.7l2.3,-4.8l-1.5,-4.8l3.8,-3.8l2.1,-2.3l0.6,2.6l-0.6,2.6l1.7,-0.1L458,284.3z"/>
        <path id="HU" title="null" class="land" d="M520.8,315.1l0.9,-2.6l-0.5,-0.9h1.6l0.2,-1.7l1.4,1.1l1,0.5l2.4,-0.5l0.2,-0.8l1.1,-0.1l1.4,-0.6l0.3,0.3l1.3,-0.5l0.7,-1l0.9,-0.2l3,1.3l0.6,-0.4l1.5,1.1l0.2,1.1l-1.7,0.9l-1.3,2.8l-1.7,2.8l-2.2,0.3l-1.8,-0.2l-2.2,1l-1,0.6l-2.3,-0.8l-2.1,-1.7l-0.9,-0.5l-0.5,-1.4L520.8,315.1z"/>
        <path id="HR" title="null" class="land" d="M528.1,318.9l0.7,1.6l0.9,1.1l-1.1,1.5l-1.3,-0.9l-1.9,0.1l-2.4,-0.7l-1.3,0.1l-0.6,0.8l-1,-0.9l-0.6,1.6l1.4,1.8l0.6,1.2l1.3,1.5l1.1,0.8l1.1,1.6l2.5,1.4l-0.3,0.6l-2.6,-1.4l-1.6,-1.4l-2.6,-1.1l-2.4,-2.9l0.6,-0.3l-1.3,-1.6l-0.1,-1.3l-1.8,-0.6l-0.9,1.7l-0.8,-1.3l0.1,-1.4l0.1,-0.1l1.9,0.1l0.5,-0.7l1,0.6l1.1,0.1v-1.1l1,-0.4l0.3,-1.6l2.2,-1.1l0.9,0.5l2.1,1.7l2.3,0.8L528.1,318.9z"/>
        <path id="GR" title="null" class="land" d="M541.8,356.7l1.5,1.2l2.2,-0.2l2.1,0.2l-0.1,0.6l1.5,-0.4l-0.3,1l-4,0.3v-0.6l-3.4,-0.7L541.8,356.7zM549.9,335.8l-0.9,2.3l-0.7,0.4l-1.7,-0.1l-1.5,-0.4l-3.4,1l1.9,2.1l-1.4,0.6h-1.6l-1.5,-1.9l-0.5,0.8l0.6,2.2l1.4,1.7l-1.1,0.8l1.6,1.6l1.4,1v2l-2.6,-0.9l0.8,1.8l-1.8,0.4l1.1,3.1h-1.9l-2.3,-1.5l-1,-2.8l-0.5,-2.4l-1.1,-1.6l-1.4,-2l-0.2,-1l1.3,-1.8l0.2,-1.2l0.9,-0.5l0.1,-1l1.8,-0.3l1.1,-0.8l1.5,0.1l0.5,-0.6l0.5,-0.1l2.1,0.1l2.2,-1l2,1.3l2.5,-0.4v-1.9L549.9,335.8z"/>
        <path id="GF" title="null" class="land" d="M328,456.4l-1.1,1.1l-1.3,0.2l-0.4,-0.8l-0.6,-0.1l-0.9,0.8l-1.2,-0.6l0.7,-1.2l0.2,-1.3l0.5,-1.2l-1.1,-1.6l-0.2,-1.9l1.5,-2.4l1,0.3l2.1,0.7l3,2.4l0.5,1.1l-1.7,2.5L328,456.4z"/>
        <path id="GB" title="null" class="land" d="M459.5,281l-1.5,3.3l-2.1,-1l-1.7,0.1l0.6,-2.6l-0.6,-2.6l2.4,-0.2L459.5,281zM466.9,260.2l-3,5.7l2.9,-0.7h3.1l-0.7,4.2l-2.5,4.5l2.9,0.3l0.2,0.5l2.5,5.8l1.9,0.8l1.7,5.4l0.8,1.8l3.4,0.9l-0.3,2.9l-1.4,1.3l1.1,2.3l-2.5,2.3h-3.8l-4.8,1.2l-1.3,-0.9l-1.9,2.1l-2.6,-0.5l-2,1.7l-1.5,-0.9l4.1,-4.6l2.5,-1l0,0l-4.4,-0.8l-0.8,-1.8l2.9,-1.4l-1.5,-2.5l0.5,-3.1l4.2,0.4l0,0l0.4,-2.7l-1.9,-3v-0.1l-3.4,-0.9l-0.7,-1.3l1,-2.2l-0.9,-1.4l-1.5,2.3l-0.2,-4.8l-1.4,-2.6l1,-5.4l2.2,-4.3l2.2,0.4L466.9,260.2z"/>
        <path id="FR" title="null" class="land" d="M502.2,333.5l-0.9,2.9l-1.3,-0.8l-0.6,-2.5l0.6,-1.4l1.8,-1.5L502.2,333.5zM485.4,300.2l2,2.1l1.4,-0.3l2.5,2l0.6,0.4l0.8,-0.1l1.3,1.1l4,0.8l-1.4,2.9l-0.4,3l-0.8,0.7l-1.3,-0.4l0.1,1l-2,2.3v1.8l1.3,-0.6l1,1.8l-0.1,1.1l0.8,1.5l-1,1.2l0.7,3l1.5,0.5l-0.3,1.7l-2.5,2.2l-5.5,-1l-4.1,1.2l-0.3,2.3l-3.2,0.5l-3.1,-1.7l-1,0.8l-5.2,-1.7l-1.1,-1.5l1.5,-2.3l0.5,-7.9l-2.9,-4.3l-2.1,-2.1l-4.3,-1.6l-0.3,-3.1l3.6,-0.9l4.7,1.1l-0.9,-4.8l2.6,1.9l6.5,-3.4l0.8,-3.6l2.5,-0.9l0.4,1.6l1.3,0.1L485.4,300.2z"/>
        <path id="FI" title="null" class="land" d="M555.5,193.1l-0.4,5.4l4.3,5l-2.6,5.5l3.3,8l-1.9,5.8l2.5,4.9l-1.2,4.1l4.2,4.3l-1.1,3.1l-2.6,3.4l-6,7.4l-5.1,0.4l-4.9,2.1l-4.6,1.2l-1.6,-3.1l-2.7,-1.9l0.6,-5.7l-1.4,-5.4l1.3,-3.6l2.5,-3.9l6.4,-7l1.9,-1.4l-0.3,-2.8l-3.9,-3.2l-0.9,-2.7l-0.1,-11.1l-4.4,-5.1l-3.7,-3.8l1.7,-2.1l3.1,4.1l3.7,-0.4l3,1.9l2.7,-3.4l1.4,-5.9l4.4,-2.8l3.6,3.3L555.5,193.1z"/>
        <path id="ES" title="null" class="land" d="M450,334.6l0.1,-2.7l-1.1,-1.7l4,-2.8l3.4,0.7h3.8l3,0.7l2.3,-0.2l4.5,0.1l1.1,1.5l5.2,1.7l1,-0.8l3.2,1.7l3.2,-0.5l0.1,2.2l-2.7,2.5l-3.6,0.8l-0.2,1.2l-1.7,2l-1.1,3l1.1,2.1l-1.6,1.6l-0.6,2.3l-2.1,0.7l-2,2.7l-3.6,0.1l-2.7,-0.1l-1.8,1.2l-1.1,1.3l-1.4,-0.3l-1,-1.2l-0.8,-2l-2.6,-0.5l-0.2,-1.2l1,-1.3l0.4,-1l-1,-1.1l0.8,-2.4l-1.1,-2.2l1.2,-0.3l0.1,-1.7l0.5,-0.5v-2.9l1.3,-1l-0.8,-1.9l-1.6,-0.1l-0.5,0.5h-1.6l-0.7,-1.8l-1.1,0.5L450,334.6z"/>
        <path id="EH" title="null" class="land" d="M438.7,383.1h3.6h8.8l0,0l0,0h-8.8H438.7l-0.1,0.1l0,0l-1.8,3.2l-1.9,1.1l-1,1.9l-0.1,1.6l-0.8,1.8l-0.9,0.5l-1.6,1.9l-1,2.1l0.2,1l-0.9,1.6l-1.1,0.8l-0.1,1.4l-0.1,1.3l0.6,-1h11l-0.5,-4.3l0.7,-1.6l2.6,-0.3l-0.1,-7.9l9.2,0.2V384l0.1,-0.6v-0.2L438.7,383.1z"/>
        <path id="EE" title="null" class="land" d="M543.5,264.7l0.3,-3.1l-1,0.7l-1.8,-1.9l-0.2,-3.1l3.5,-1.5l3.5,-0.8l3,0.9l2.9,-0.2l0.4,1l-2,3.1l0.8,5l-1.2,1.7h-2.3l-2.4,-1.9l-1.2,-0.6L543.5,264.7z"/>
        <path id="DK" title="null" class="land" d="M510.9,275.8l-1.7,4l-2.9,-2.8l-0.4,-2l4.1,-1.7L510.9,275.8zM506,271.6l-0.7,1.9l-0.8,-0.5l-2,3.6l0.8,2.4l-1.8,0.7l-2.1,-0.6l-1.1,-2.7l-0.1,-5.1l0.5,-1.4l0.8,-1.5l2.5,-0.3l1,-1.4l2.3,-1.5l-0.1,2.7l-0.8,1.7l0.3,1.4L506,271.6z"/>
        <path id="DE" title="null" class="land" d="M503.2,278.9v1.9l2.8,1.1v1.7l2.9,-0.9l1.6,-1.3l3.2,1.9l1.3,1.5l0.7,2.4l-0.8,1.2l1,1.6l0.7,2.4l-0.2,1.6l1.1,2.9l-1.2,0.5l-0.7,-0.5l-0.7,0.8l-2,0.9l-1,1.1l-2,0.9l0.5,1.3l0.3,1.8l1.4,1l1.6,1.8l-1,1.9l-1,0.5l0.4,2.7l-0.3,0.7l-0.9,-0.8l-1.3,-0.1l-2,0.7l-2.5,-0.2l-0.4,1.1l-1.4,-1.1l-0.9,0.2l-3,-1.3l-0.6,0.9h-2.4l0.4,-3l1.4,-2.9l-4,-0.8l-1.3,-1.1l0.2,-1.9l-0.6,-1l0.3,-3l-0.5,-4.7h1.7l0.7,-1.7l0.7,-4.2l-0.5,-1.6l0.6,-1l2.3,-0.3l0.5,1l1.9,-2.3l-0.6,-1.8l-0.1,-2.8l2.1,0.6L503.2,278.9z"/>
        <path id="CZ" title="null" class="land" d="M522.9,307.9l-1.3,-0.8l-1.3,0.2l-2.2,-1.3l-1,0.3l-1.6,1.7l-2.1,-1.4l-1.6,-1.8l-1.4,-1l-0.3,-1.8l-0.5,-1.3l2,-0.9l1,-1.1l2,-0.9l0.7,-0.8l0.7,0.5l1.2,-0.5l1.3,1.4l2.1,0.4l-0.2,1.2l1.5,0.9l0.4,-1.1l1.9,0.5l0.3,1.4l2.1,0.3l1.3,2.1h-0.8l-0.4,0.8l-0.6,0.2l-0.2,1l-0.5,0.2l-0.1,0.4l-1,0.4l-1.2,-0.1L522.9,307.9z"/>
        <path id="CH" title="null" class="land" d="M502.2,312.3l0.1,0.7l-0.4,1l1.3,0.7l1.4,0.1l-0.2,1.7l-1.2,0.7l-2.1,-0.5l-0.6,1.6l-1.3,0.1l-0.5,-0.6l-1.6,1.4l-1.4,0.2l-1.2,-0.9l-1,-1.8l-1.3,0.6v-1.8l2.1,-2.3l-0.1,-1.1l1.3,0.4l0.8,-0.7h2.4l0.6,-0.9L502.2,312.3z"/>
        <path id="BY" title="null" class="land" d="M541.2,284.1h2.7l3,-1.8l0.7,-2.7l2.3,-1.6l-0.3,-2.2l1.7,-0.8l3,-1.9l3,1.3l0.4,1.2l1.5,-0.6l2.7,1.2l0.3,2.3l-0.6,1.3l1.8,3.1l1.1,0.9l-0.2,0.9l1.9,0.8l0.8,1.2l-1.1,1l-2.3,-0.2l-0.5,0.5l0.7,1.5l0.7,2.9l-2.4,0.3l-0.9,1L561,296l-1.1,-0.4l-2.5,0.2l-0.7,-1l-1,0.8l-1,-0.6l-2.2,-0.1l-3.1,-1.1l-2.8,-0.4l-2.2,0.1l-1.5,1.2l-1.3,0.2v-2l-0.9,-2.1l1.7,-0.9V288l-0.8,-1.8L541.2,284.1z"/>
        <path id="BG" title="null" class="land" d="M538.9,325.6l0.8,1.6l1.1,-0.3l2.2,0.6l4.1,0.2l1.4,-1l3.3,-0.9l2,1.4l1.7,0.4l-1.5,1.6l-1,2.7l0.9,2.2l-2.4,-0.5l-2.9,1.2v1.9l-2.5,0.4l-2,-1.3l-2.2,1l-2.1,-0.1l-0.2,-2.5l-1.4,-1.2l0.5,-0.5l-0.3,-0.4l0.5,-1.2l1.1,-1.2l-1.4,-1.7l-0.2,-1.4L538.9,325.6z"/>
        <path id="BE" title="null" class="land" d="M484.6,295.9l2.1,0.4l2.6,-0.9l1.8,2l1.5,1l-0.3,3l-0.7,0.2l-0.3,2.4l-2.5,-2l-1.4,0.3l-2,-2.1l-1.3,-1.8l-1.3,-0.1l-0.4,-1.6L484.6,295.9z"/>
        <path id="BA" title="null" class="land" d="M528.6,323.1h1l-0.7,1.7l1.4,1.5l-0.4,1.8l-0.7,0.2l-0.5,0.4l-0.9,0.9l-0.4,2.1l-2.5,-1.4l-1.1,-1.6l-1.1,-0.8l-1.3,-1.5l-0.6,-1.2l-1.4,-1.8l0.6,-1.6l1,0.9l0.6,-0.8l1.3,-0.1l2.4,0.7l1.9,-0.1L528.6,323.1z"/>
        <path id="AT" title="null" class="land" d="M523,309.9l-0.2,1.7h-1.6l0.5,0.9l-0.9,2.6l-0.5,0.7l-2.5,0.1l-1.4,0.9l-2.3,-0.3l-4,-1.1l-0.6,-1.4l-2.8,0.7l-0.3,0.8l-1.7,-0.6l-1.4,-0.1l-1.3,-0.7l0.4,-1l-0.1,-0.7l0.9,-0.2l1.4,1.1l0.4,-1.1l2.5,0.2l2,-0.7l1.3,0.1l0.9,0.8l0.3,-0.7l-0.4,-2.7l1,-0.5l1,-1.9l2.1,1.4l1.6,-1.7l1,-0.3l2.2,1.3l1.3,-0.2l1.3,0.8l-0.2,0.5L523,309.9z"/>
        <path id="AL" title="null" class="land" d="M533.1,334.7l-0.3,1.3l0.4,1.6l1.2,0.9l-0.1,1l-0.9,0.5l-0.2,1.2l-1.3,1.8l-0.5,-0.2l-0.1,-0.8l-1.6,-1.2l-0.2,-1.8l0.2,-2.5l0.4,-1.2l-0.5,-0.6l-0.2,-1.2l1.2,-1.9l0.2,0.7l0.8,-0.3l0.6,1l0.7,0.4L533.1,334.7z"/>
        <path id="GE" title="null" class="land" d="M591.9,335.9l0.4,-1.6l-0.7,-2.6l-1.6,-1.4l-1.5,-0.4l-1,-1.2l0.3,-0.5l2.4,0.7l4.1,0.6l3.8,1.8l0.5,0.7l1.7,-0.6l2.6,0.8l0.8,1.5l1.8,0.9l-0.7,0.5l1.4,2l-0.4,0.4l-1.5,-0.2l-2.1,-1.1l-0.7,0.6l-3.9,0.6l-2.7,-1.8L591.9,335.9z"/>
        <path id="AZ" title="null" class="land" d="M601.5,342.5l0.8,1h1.2v0.6l1.1,2.1l-1.9,-0.5l-1.4,-1.7l-0.4,-1.4L601.5,342.5zM608.2,337l1.2,0.2l0.5,-1l1.7,-1.5l1.5,2l1.4,2.6l1.3,0.2l0.9,1l-2.3,0.3l-0.5,2.8l-0.5,1.3l-1,0.8l0.1,1.8l-0.7,0.2l-1.8,-1.9l1,-1.8l-0.9,-1l-1,0.3l-3.3,2.7l-0.1,-2.5l-1.3,-0.6l-1.2,-1l0.8,-1.2l-1.5,-1.3l0.6,-0.9l-1.1,-0.6l-0.6,-1l0.7,-0.6l2.1,1.1l1.5,0.2l0.4,-0.4l-1.4,-2l0.7,-0.5l0.8,0.1L608.2,337z"/>
        <path id="AM" title="null" class="land" d="M597.6,337.5l3.9,-0.6l0.6,1l1.1,0.6l-0.6,0.9l1.5,1.3l-0.8,1.2l1.2,1l1.3,0.6l0.1,2.5l-1,0.1l-1.1,-2.1v-0.6h-1.2l-0.8,-1l-0.6,0.1l-1.1,-1.1l-2.1,-0.9l0.3,-1.8L597.6,337.5z"/>
        <path id="MD" title="null" class="land" d="M550,309.5l0.7,-0.6l1.9,-0.4l2.1,1.3l1.2,0.2l1.3,1.1l-0.2,1.4l1,0.7l0.4,1.7l1,1l-0.2,0.6l0.5,0.4l-0.7,0.3l-1.9,-0.2l-0.3,-0.6l-0.6,0.3l0.2,0.7l-0.8,1.3l-0.5,1.4l-0.7,0.4l-0.5,-1.8l0.3,-1.7l-0.1,-1.8l-1.6,-2.4l-0.9,-1.8l-0.9,-1.2L550,309.5z"/>
        <path id="SE" title="null" class="land" d="M537.6,217.5l-2.7,4.7l0.4,4l-4.5,5.1l-5.4,5.3l-2,8.4l2,4.1l2.7,3.1l-2.6,6.2l-2.9,1.3l-1.1,8.8l-1.6,4.8l-3.4,-0.5l-1.6,3.9l-3.2,0.2l-0.9,-4.7l-2.4,-5.8l-2.1,-7.5l1.2,-3.1l2.3,-3.8l0.9,-6.7l-1.8,-3l-0.2,-8l1.8,-5.9l2.8,0.1l1,-2.5l-1,-2.2l4.3,-9.5l2.8,-7.9l1.9,-5.2h2.7l0.8,-4.2l5.3,1.2l0.4,-5.1l1.7,-0.3l3.7,3.8l4.4,5.1l0.1,11.1l0.9,2.7L537.6,217.5z"/>
        <path id="asia" title="null" class="land" d="M835.2,465.6l-1.2,-1.5l0.4,-1.7l1.5,0.3l0.2,-2.4l-0.3,-1.1l-1.7,-0.2l-0.2,-1.5l-0.9,1l-0.6,2.2l0.8,3.6l1.1,1.8L835.2,465.6zM829,473.4l1.9,0.5l1,-0.9l-0.7,-0.9l-2.8,0.1L829,473.4zM820,432.9l-0.3,1.8l-0.7,0.8l-0.6,0.8l1.7,2l0.9,-0.8l0.9,-1.8l1,-0.9l0.3,-2.7l-2.1,2.7l0.5,-1.9H820zM817,430l0.4,1.4l-0.2,1.5l0.1,1.3l1.8,-0.9l1.3,-1.2v-1.2h-1.8L817,430zM814,427.7l1.2,1.4l0.7,-2.5l-1,-1l-2.4,-0.1L814,427.7zM830.3,486.9l-2,0.1l-2.4,0.6l-0.3,0.7l-2.8,1.1l-1.2,1.7l-0.2,1l0.3,0.3l2.4,-0.6l1.8,-2.1l2.3,-0.8l2.9,-1.2l1,-0.8l-1.1,-0.4L830.3,486.9zM827.1,429.2l-0.8,-1.1l-2.7,-0.1l1.7,2.2v1.1l-1.7,-0.2l0.4,1.7l0.8,0.1l0.1,2l1.3,-0.6l-0.7,-1.8l-0.1,-1l2.2,0.8L827.1,429.2zM821.5,439.1l-1.5,1.1l-1.8,0.8l-1.1,2.4l0.5,0.8l2.1,-1.6l1.3,0.1l0.9,-1.2l1.8,1.3l-0.9,1.3l0.8,2l3.3,1.6l0.8,-1.3l-0.9,-2.1l1.3,-1.4l1,2.9l1,-2.6l-0.2,-1.6l-0.3,-1.9l-0.2,-1l-0.2,-1.4l-2.3,-1.3l0.2,2.2l-2,0.1l-0.5,1.3l-2.1,0.8L821.5,439.1zM838,471.2l-3.5,0.1l-0.7,1.5l1.9,0.1l1.6,-0.2l2.3,0.2l2.4,1.1l-1,-2.1L838,471.2zM870.6,470.6l-3,-0.5l-2.1,-1l-2.4,-1h-2.5l-3.2,1.7l-2.3,3l-2.9,-1.7l-0.8,-4.5l-0.4,-1l-4.5,-1.1l-1.4,0.9l-3.8,0.7l1.2,1.4l2.5,0.5l1.1,1.7h4.1l0.2,0.7h-2l-3,1l2.1,1.4v1.2l0.6,1l1.1,-0.2l0.8,-1.4l4.2,2.6l2.3,0.2l5.4,2.4l1.3,2.4l0.7,3l-1.8,0.8l-1.2,2.3l3.5,-0.1l0.7,-0.8l2.8,0.6l2.5,2.3v-9.2L870.6,470.6zM811.5,419.9l0.4,1.3l1.4,1.6l0.4,-1l0.8,0.7l-0.9,0.7l-0.1,1.2l1.4,0.6l2.5,-0.4l1.8,1.7l0.7,-1l1,1.5l2.2,1.4l0.3,-1.3l-0.9,-0.7l0.3,-1.6l-3.5,-1.6l-1.2,0.3l-1.5,-0.3l-0.6,-2.3l0.4,-2.3l1.7,-1l0.7,-2.4l-1,-2.1l0.5,-1.2L818,411l-0.9,0.8l-1.7,-0.8h-1.7l-0.9,2.7l-0.3,4.5l-1.1,-1L811.5,419.9zM851.8,479.5l-0.5,1l0.3,2.1l1.4,-1.9v-1.3l-0.6,-0.8L851.8,479.5zM772.1,475.4l0.7,-3.5l-1.4,-1.8l-2.1,-0.2l-1,-1.6l-0.5,-1.9l-1,-0.1l-1.6,-1l1.1,-2.3l-2.1,-1.3l-1.6,-2.3l-2.4,-1.9h-2.8l-2.7,-3l-1.5,-1.2l-2.2,-1.9l-2.5,-2.7l-4.3,-0.5l-1.8,-0.1l0.2,1.4l2.9,3.1l2.1,1.6l1.5,2.4l2.5,1.8l1,2.2l0.8,2.4l2.5,2.3l2.1,3.9l1.4,2.1l2.1,2.3l1.2,1.7l3.6,2.3l2.4,2.3l3.1,-0.1L772.1,475.4zM808.6,486.5l-1.7,0.2l-1,-0.8l-0.8,1h-1.5l-1,1.6h1.5l1.9,-0.4l3.2,-0.6L808.6,486.5zM811.4,489.6l-2.6,0.6l3.7,2h1.2l0.2,-0.8l-1,-0.9L811.4,489.6zM809,435.4l1.8,-1.6l-0.5,-2.3l-1.5,2.8l-1.7,2l-2,1.7l-1.4,2l3.7,-2.7L809,435.4zM814.3,467.3l-2.5,-2.5l0.4,-2.1l2.5,-0.4l4.7,-0.1l2.7,0.5l2.1,-0.5l2.2,-2.8l-0.5,-0.6l-2.8,2l-3.2,0.1l-3.5,-0.4l-2.2,-0.8l-2.4,2.1l-0.6,1.1l-1.4,4.2l-0.4,2.2l-1.2,1.8l0.9,1.9h1.2l0.4,2.7l-0.8,2.6l1.2,0.8l1.8,-0.4l-0.1,-4l-0.2,-3.2l1.9,-0.9l-0.2,2.7l2,1.6l-0.4,1.1l0.7,0.8l2.8,-1.1L818,478l1.1,1l1.5,-0.8v-1.8l-2.5,-3.2l0.5,-1l-2.7,-3.6l2.5,-1.1l1.2,-1.6l1.2,0.4l0.2,-1.3l-5.2,1L814.3,467.3zM815.5,487.2l-1.8,-0.8l-2.2,0.6v1l3.7,0.4l4.2,-0.8l0.4,-1.6l-2.5,1L815.5,487.2zM804.6,463.1l0.9,-1.9l3.3,-0.3l-3.1,-2.6l0.5,-1.3l-2.1,-2.6l1.6,-2.5l2.1,-1l-0.5,-1.4l1.9,-0.1l0.2,-1.1l-2.3,-0.8l-1.8,-0.8l-0.1,-1.2l-1.4,-1.4h-1.1l-1.4,2.2l-2.2,2l-2.4,1.5l-1.1,1l-1.4,1.8l-2,2.2l-3.4,0.6l-1.2,0.5l-0.6,2.4l-2.2,0.5l-2,-1l-1.7,1.9l-0.3,2.6l0.4,2.4l1.3,2.4l1.4,0.8l0.4,3.7l2.3,0.3l1.8,-0.1l1,1.4l3.3,-1l1.4,0.9l2,0.2l1.1,1.7l3.2,-1.3l0.4,1l1.1,-4.3l0.1,-2.8l2.7,-1.9L804.6,463.1zM792,484.6l-1,-1.8l-5.2,-1.4l-0.6,1.2l-5.4,-0.3l-0.4,-1l-1.2,-0.2L776,480l-3.4,-0.2l-1.9,2.7l2.6,0.2l0.5,1.2l5.1,1.2l1.2,-0.4l2.1,0.3l3.2,1.1l2.6,0.5l2.9,0.2l2.5,-0.1l3.1,1.1l3.2,-1.1l-3.4,-1.7L792,484.6zM815,398.1l1.7,-4.9l0.5,-1.9l-1.3,-0.9l-2.2,2.3l-1.7,3l0.3,2.2l1.5,2.5L815,398.1zM868.7,337.1l-1.2,2.3l0.5,4.1l-1.8,4.4l-1.6,1.4l-4.1,3.5l-1.9,-1.7l-2.9,6.2l-3,-0.7l-5.6,1L845,360l-2.8,1.8l-1.5,2.1l-2.7,1l1.1,2.3l1.8,1l-0.7,3l1.4,1.3l1.8,-1.4l1.9,-5.6l-2.8,-2.5l3.3,-0.1l3.3,-1.6l4.9,-0.8l0.1,2.5l1.9,1.3l4,-3.8l4.9,-0.2l3.6,-1.6l1.5,-2.4l-0.5,-1.7l1.1,-2.8v-3.6l2.6,-3.6l0.1,-2.9l-1.5,-5.1L868.7,337.1zM880.7,326.6l-2,-0.8l-2.2,-1.3l-3.3,-4.1l-0.8,3.1l-0.8,5.4l-3,0.2l-1.4,2.9l0.4,3.7l3.1,-0.1l1.5,-4.1l4.4,2.6l2.5,-3.8l4.2,-1l-0.6,-4.4L880.7,326.6zM849,364.9l1.4,-0.8l1.2,1.1l1.6,-2l-0.4,-1.1l-2.1,-0.7l-1.2,1.4l-1.6,-0.4l-1.5,2v1.6l1.8,1L849,364.9zM701.9,437.5l-1.9,-1.6l-1.3,4.6l0.5,4l1.3,2.2l2.4,-0.6l1.2,-0.8l0.4,-2.9l-1.4,-2.9L701.9,437.5zM785.3,408.7l1.2,-1.3l-0.6,-1.1l-1.6,-0.1l-3.1,0.8l-1.4,1.3l0.1,2.5l2.3,0.9l2.4,-1.4L785.3,408.7zM572.2,356.8l-1.9,1.5l0.2,0.6l0.1,0.3l-2.9,1.4l-1.4,-0.4l-0.7,-1.4l1.3,-0.1h0.2l0.4,-0.8h2L572.2,356.8zM841.6,332.6l0.4,0.6l-0.9,-0.2l-1.2,1.3l-0.8,1.3l0.1,2.7l-1.5,0.8l-0.5,0.6l-1.1,1.1l-1.9,0.6l-1.2,1l-0.1,1.6l-0.3,0.4l1.1,0.6l1.6,1.6l2.4,4.2l0.7,2.3v4l-1.1,1.9l-2.5,0.7l-2.2,1.4l-2.5,0.3l-0.3,-1.9l0.5,-2.6l-1.2,-3.6l2.1,-0.6l-1.9,-3l-1.4,-0.7l-0.3,0.7l-0.8,0.3l-0.1,-0.7L826,349l-0.8,-0.6l0.8,-1.6l0.7,-0.4l-0.2,-0.7l0.7,-1.9l-0.2,-0.6l-1.6,-0.4l-1.3,-1l-3.9,1.1l-2.1,1.7l-3,1l1.5,-1.7l-0.6,-1.4l2.2,-2.5l-1.5,-1.9l-2.4,1.3l-3.2,2.5l-1.7,2.3l-2.8,0.2l-1.4,1.7l1.5,2.4l2.3,0.6l0.1,1.6l2.2,1l3.1,-2.5l2.5,1.4l1.8,0.1l0.5,1.8l-4,1l-1.3,1.9l-2.7,1.7l-1.4,2.4l3,1.9l1.1,3.3l1.7,3l1.9,2.5v2.4l-1.8,0.9l0.7,1.7l1.7,1l-0.4,2.6l-0.7,2.5l-1.6,0.3l-2,3.4l-2.3,4.1l-2.6,3.7l-3.9,2.8l-3.9,2.5l-3.2,0.4l-1.7,1.3l-1,-1l-1.6,1.5l-3.9,1.5l-3,0.5l-1,3.2l-1.5,0.2l-0.7,-2.2l0.7,-1.2l-3.8,-1l-1.3,0.5l-3.7,2.6l-2.3,2.8l-0.6,2l2.1,3.1l2.6,3.8l2.5,1.8l1.7,2.3l1.3,5.3l-0.4,5l-2.3,1.9l-3.2,1.8l-2.3,2.4l-3.5,2.6l-1,-1.8l0.8,-1.9l-2.1,-1.6l-2.3,-0.4l-1.1,-1.5l-1.4,-2.9l-2.5,-1.3h-2.4l0.4,-2.2h-2.5l-0.2,3.1l-1.5,4.1l-0.9,2.5l0.2,2l1.8,0.1l1.1,2.6l0.5,2.4l1.6,1.6l1.7,0.3l1.5,1.5l0.6,0.3l1.7,1.7l1.2,1.9l0.2,1.9l-0.3,1.3l0.3,1l0.2,1.7l1,0.8l1.1,2.5v0.9l-2,0.2l-2.7,-2.1l-3.3,-2.2l-0.3,-1.4l-1.6,-1.9l-0.4,-2.3l-1,-1.5l0.3,-2l-0.6,-1.2l-1.1,-1.1l-0.5,-1.4l-1.5,-1.6l-1.4,-1.3l-0.5,1.7l-0.5,-1.6l0.3,-1.8l0.8,-2.7l-0.3,-2.1l0.9,-2.2l-0.9,-1.7l0.2,-3.1l-1.1,-1.5l-0.9,-3.4l-0.5,-3.7l-1.2,-2.4l-1.8,1.5l-3.2,2.1l-1.6,-0.3l-1.7,-0.7l1,-3.6l-0.6,-2.7l-2.2,-3.4l0.3,-1.1l-1.6,-0.4l-2,-2.4l-0.8,-1.6l-0.2,-1.5l-0.5,-1.5l-1.2,-1.8l-2.6,-0.1l0.2,1.2l-0.9,1.7l-1.2,-0.6l-0.4,0.5l-0.8,-0.3l-1.1,-0.3l-0.4,1.1h-1.9l-3.5,0.6l0.2,2.2l-1.5,1.8l-4,2l-3.1,3.5l-2.1,1.8l-2.8,1.9v1.3l-1.4,0.7l-2.5,1l-1.3,0.2l-0.8,2.2l0.6,3.7l0.2,2.4l-1.2,2.7v4.8l-1.5,0.1l-1.3,2.2l0.8,0.9l-2.6,0.8l-0.9,1.9l-1.1,0.8l-2.7,-2.6l-1.3,-4l-1.1,-2.9l-1,-1.4l-1.5,-2.7l-0.7,-3.6l-0.5,-1.8l-2.5,-4l-1.2,-5.6l-0.8,-3.8v-3.6l-0.5,-2.8l-4.1,1.8l-2,-0.4l-3.7,-3.6l1.3,-1.1l-0.8,-1.2l-3.3,-2.6l-2,-0.8l-0.8,-2.2l-2.2,-2.3l-5.2,0.6l-4.6,0.1l-4,0.4h-0.1l-5.3,-0.9l-3.1,-0.7l-3.2,-0.4l-1.2,-3.8l-1.3,-0.6l-2.2,0.6l-2.8,1.5l-3.4,-1l-2.8,-2.4l-2.7,-0.9l-1.9,-3l-2.1,-4.3l-1.5,0.5l-1.8,-1.1l-1,1.3l-1.7,-0.2l0.6,1.4l-0.2,0.7l0.9,2.4l1.1,2.7l1.4,0.7l0.5,1.1l1.9,1.3l0.2,1.3l-0.3,1l0.4,1l0.8,0.9l0.4,1l0.4,0.8l-0.2,-2.2l0.8,-1.6l0.8,-0.3l0.8,1v1.8l-0.6,1.8l0.5,1.2l0.5,-0.2l0.1,0.8l2.2,-0.5l2.3,0.1l1.7,0.1l1.9,-2.1l2.1,-2l1.8,-1.9l0.8,-1.1l0.3,0.3l-0.3,1.3l-0.4,0.6l0.4,2.4l1.3,2.1l1.6,1.1l2.1,0.4l1.7,0.5l1.3,1.7l0.8,1l1,0.4v0.7l-1,1.8l-0.5,0.8l-1.2,1l-1,2l-1.3,-0.2l-0.6,0.7l-0.5,1.5l0.3,2l-0.3,0.4h-1.3l-1.8,1.1l-0.3,1.4l-0.7,0.6h-1.7l-1.1,0.7v1.2l-1.4,0.8l-1.5,-0.3l-1.9,1l-1.3,0.2l-2,0.8l-0.5,1.3l-0.1,1l-2.8,1.2l-4.5,1.3l-2.5,2l-1.2,0.1l-0.8,-0.2l-1.6,1.2l-1.8,0.5l-2.3,0.1l-0.7,0.2l-0.6,0.8l-0.7,0.2l-0.4,0.7l-1.4,-0.1l-0.9,0.4l-1.9,-0.1l-0.7,-1.7l0.1,-1.6l-0.5,-0.8l-0.5,-2.1l-0.8,-1.2l0.6,-0.1l-1,-0.6l0.3,-0.6l-0.1,-1.3l-0.4,-1.2L594,415l-0.2,-1.2l-1.4,-1l-1.5,-2.5L590,408l-1.9,-2l-1.2,-0.5l-1.9,-2.9l-0.3,-2.1l0.1,-1.8l-1.6,-3.4l-1.3,-1.2l-1.5,-0.6l-0.9,-1.8l0.2,-0.7l-0.8,-1.6l-0.8,-0.7l-1.1,-2.3l-1.7,-2.5l-1.4,-2.2h-1.4l0.4,-1.7l0.1,-1.1l0.3,-1.3l-0.1,-0.5l-1.8,-5.5l0.8,-1.1l-0.2,-0.2l0.7,-1.5l0.6,-2.5l0.4,-0.8h0.1l1,-2.7l1.4,-2.4l-0.2,-2.7l0.7,-1.4l-1,-1.6l1.1,-1.3l-1.7,0.3l-2.3,-0.8l-1.9,2l-4.3,0.4l-2.3,-1.9l-3,-0.1l-0.7,1.4l-1.9,0.4l-2.7,-1.9l-3.1,0.1l-1.7,-3.5l-2,-2l1.4,-2.8l-1.8,-1.7l3.1,-3.5l4.3,-0.2l1.2,-2.8l5.3,0.5l3.4,-2.4l3.3,-1.1l4.6,-0.1l4.9,2.6l4,1.4l3.3,-0.6l2.4,0.3l3.3,-1.9l3,-0.2l2.7,1.8l0.5,1.3l-0.3,1.8l0,0l0,0l2.1,0.9l1.1,1.1l0,0l0.4,1.4l1.4,1.7l1.9,0.5l1,-0.1h0.1l0,0l3.3,-2.6l1,-0.3l0.8,1.1l-1,1.8l1.8,1.9l0.7,-0.2l0.9,2.6l2.7,0.7l2,1.8l4,0.6l4.4,-0.9l0.3,-0.8h0.1L626,349l0.4,-3.7l-2.2,-1.2l0.7,-2.5l-1.9,-0.2l0.6,-3.1l2.6,0.9l2.5,-1.2l-2,-2.2l-0.8,-2.1l-2.3,1l-0.3,2.7l-0.9,-2.4l-0.2,-0.9l0.7,-1.6l-0.5,-1.3l-3.2,-1.3l-1.3,-3.5l-1.5,-1l-0.1,-1.3l2.7,0.4l0.1,-2.9l2.4,-0.6l2.5,0.6l0.5,-3.9l-0.5,-2.5l-2.8,0.2l-2.4,-1l-3.2,1.8L613,317v-0.1l-1.4,-0.7l0.3,-2.1l-1.8,-2.8l-2.1,0.1l-2.4,-2.8l1.6,-3.2l-0.8,-0.9l2.2,-4.7l2.8,2.5l0,0l0,0v-0.1l0,0l0.3,-3.2l5.8,-4.8l4.4,-0.1l6.1,3.1l3.3,1.8l0,0l0,0l3,-1.9l4.4,-0.1l3.6,2.3v-0.1l0,0l0.8,-1.2l3.9,0.2v-0.1l0,0l0.7,-2.1l-4.5,-3.1l0.3,-0.2l0,0l0.1,-0.1l0,0l2.3,-1.9l-0.5,-1.2l2.7,-1.2l-2,-3.2l1.3,-1.6l10.5,-1.7l1.4,-1.2l7,-1.8l2.5,-2l5,1.1l0.9,5l2.9,-1.2l3.6,1.6l-0.2,2.6l2.7,-0.3l7,-4.5l-1,1.5l3.6,3.7l6.3,11.6l1.5,-2.3l3.9,2.6l4,-1.1l1.5,0.8l1.3,2.5l2,0.8l1.2,1.8l3.6,-0.6l1.5,2.6l1.1,-0.3l3,-0.7l5.3,-3.7l4.3,-2.1l2.4,1.3l2.9,0.1l1.9,2l2.8,0.2l4,1.1l2.7,-3l-1.1,-2.6l2.9,-4.7l3.1,1.9l2.5,0.5l3.3,1.1l0.5,3.3l4,1.8l2.7,-0.8l3.5,-0.6l2.8,0.6l2.8,2.1l1.7,2.2h2.6l3.5,0.7l2.6,-1.1l3.7,-0.7l4.1,-3.1l1.7,0.5l1.5,1.5l3.3,-0.4l3.4,1.6l4,-2.7v-1.9l2.5,-4.7l1.6,-1.5v-2.5l-1.5,-1.1l2.3,-2.3l3.5,-0.8l3.7,-0.1l4.2,1.4l2.5,1.7l1.7,4.6l1,1.9l1,2.7l1,4.3l4.9,1.4l3.3,3l1.1,4h4.3l2.4,-1.7l4.6,-1.2l-1.5,3.8l-1.1,1.5l-1,4.5l-1.9,3.9l-3.4,-0.7l-2.4,1.4l0.7,3.4l-0.4,4.5l-1.4,0.1L841.6,332.6zM551.5,339l-2.3,2l-0.9,-1.7v-0.8l0.7,-0.4l0.9,-2.3l-1.4,-1l2.9,-1.2l2.4,0.5l0.3,1.4l2.5,1.2l-0.5,0.9l-3.3,0.2L551.5,339z"/>
        <path id="north america" title="null" class="land" d="M281.1,409.4l0.1,-0.9l-1.5,0.1l-0.5,-1l-0.7,0.1l-1.7,-0.8h-2.2l-0.4,0.5l-2.4,-0.5l-1.7,-0.1l-0.6,0.8l1.8,0.5v1.1l1.3,1.3l-1,0.6l-2.1,-0.2l-2.6,-0.4l-0.2,1l1.5,0.9l1.3,-0.5l1.7,0.2l1.3,-0.2l1.9,0.5l0.1,0.8l0.7,0.5l1.1,-2l0.9,-0.4l0.4,0.7l1.1,-0.2l0.5,-0.5l0.9,0.1l1.3,-0.1l1.3,0.6l1,-1.2l-1.4,-1.1L281.1,409.4zM255.1,385.6l-1.3,0.2l0.2,1.1l3.1,-0.5l-0.1,-0.8L255.1,385.6zM256,390.8l-0.6,2l1.1,0.9l0.7,1.8l0.7,-0.1v-1.8l-1,-2.5L256,390.8zM289.4,410.9h-2.3l-0.4,0.4l0.2,1.3l1.6,-0.1h2.1l0.7,-0.7l-0.5,-0.6L289.4,410.9zM267.3,405.7l-2.1,-1.2l-2.1,-0.1l0.2,-0.8l-1.7,-0.6h-0.9l-1.8,-1.4l-2.4,-1.9l-1,-0.7l-2.6,0.3l-1.1,-1.1l-2.6,-1H247l-2.4,-0.2l-0.7,0.3l-2.1,0.3l-1.4,0.6l-1.3,0.7l-0.6,1.1l-1.5,0.9l1.2,0.3l1.4,-0.3l0.4,-0.7h1.2l2,-1.6l2.8,0.1l-1.1,0.8l1,0.6l3.6,0.5l0.8,0.6l2.6,0.8l1.6,-0.1l0.7,1.7l1,0.9l1.8,0.2l1.1,0.8l-1.9,1.7l4,-0.3l1.9,0.2l1.9,-0.1l1.9,-0.4L267.3,405.7zM259.6,411.2l-1.9,-0.3l-0.6,-0.1l-1.2,0.2l-0.3,0.7l1.6,1.1l1.6,0.5l0.9,-0.5h2l-0.5,-0.8L259.6,411.2zM258.9,388.7l0.5,-2.2l-2.2,-1.4v0.4l1.3,1.2v1.6L258.9,388.7zM32.2,401.4l-0.8,0.4l0.1,0.1l0.4,0.7l1,0.1h0.2l0.2,-0.2l-0.8,-1L32.2,401.4zM27.8,399.8l-0.4,0.3l-0.1,0.2l0.9,0.5l0.3,-0.3l-0.1,-0.7H27.8zM34.1,403.2l1.5,0.1l0.1,-0.3l-1.4,-0.1L34.1,403.2zM37.1,403.8l-1,-0.3l-0.3,0.3v0.2l0.3,0.2l0.5,0.6l0.9,-0.2l0.2,-0.4L37.1,403.8zM8.5,250.6l-2.8,1l1.7,1.5l1.8,1l1.7,-0.9l-0.3,-2.1L8.5,250.6zM0,235.2l2,-1.3l0.2,-0.7L0,232.6V235.2zM139.1,126.9l5.2,-5.1l2.6,-0.6l2.2,-4.2l0.4,-9.8l-3.9,1.9l-4.3,-0.2l-5.8,8.2l-4.8,9l3.8,2.5L139.1,126.9zM145.2,136.3l3.9,1.9l12.7,-1.3l-5.8,4.8l0.4,3.4l4.3,-0.2l7.1,-4.6l9.5,-1.7l1.7,-5.2l-0.5,-5.6l-2.9,-0.5l-2.5,1.9l-1.1,-4.1l-0.9,-5.7L168,118l-2.6,4.4l4,11.1l-4.9,-0.9l-5,-6.8l-7.9,-4l-2.6,3.3L145.2,136.3zM130.1,178.1l7.4,-4.2V170l3.5,-6.4l6.9,-6.7l3.5,-2.5l-3,-4.2l-2.7,-2.9l-7.2,-0.6l-4,-2.2l-9.5,1.6l2.7,6.2l-2.4,6.4l-1.9,6.9l-1.2,3.9l6.5,4.7L130.1,178.1zM326.4,307.5l-2,0.7l0.9,-3.1l-2.8,-1.3l-1.3,1l-2.5,-1.2l1,-1.5l-1.9,-0.9l-1.8,1.5l1.9,-3.8l1.5,-2.8l0.5,-1.2l-1.3,-0.2l-2.4,1.5l-1.7,2.5l-2.9,6.9l-2.4,2.6l1.2,1.1l-1.8,1.5l0.4,1.2l5.4,0.1l3,-0.2l2.7,1l-2,1.9l1.7,0.1l3.2,-3.6l0.8,0.5l-0.6,3.4l1.8,0.8l1.3,-0.1l1.2,-3.6l-0.9,-2.6L326.4,307.5zM296.8,316.3l-1,-2l-1.1,1.3l0.7,1.4l3.6,1.7l1,-0.3l1.4,-1.7l-2.6,0.1L296.8,316.3zM40,406.5l-0.5,-0.3l-1.1,-0.5l-0.2,-0.1l-0.2,0.3l0.2,0.6l-0.5,0.5l-0.1,0.3l0.5,1.1l-0.1,0.8l0.7,0.4l0.4,-0.5l0.9,-0.5l1.1,-0.6l0.1,-0.2l-0.7,-1L40,406.5zM301.9,304.9l-2.9,-1.8l-3.7,-1.1l-1,0.4l2.6,2l3.6,1.3l1.4,-0.1V304.9zM439.5,42.6l-8.4,-3.8l-13.6,7.5l-7.1,6.9l3.1,-11l-2.3,-7.2l-5.4,6.1l-8.5,-6.9l-9.9,2.2l-1.4,-3.6l15.1,-2l10.7,-0.9l5.2,-8.3L399.3,3.2L376.9,0L367,2.4l-3.6,8.9l-9.8,-1.1l-9.4,13.6l-0.4,9.1l6.7,10.8l-5.8,-6.4l-3.9,-1.6L334,28l-7.4,11.3l-3.1,-6.3l-8.6,0.2l-8.6,3.2l-6.6,5.2l1.2,8.6l-4.1,2L287,64.5l-2.4,6.6l7.6,5.8l-1.1,5.6l-10.3,7.2l-10.6,6.9l-0.4,5.3l6.3,5.4l12,3.4l-5.6,0.7l-7.4,4l4.9,7.7l3.2,3.8l6.8,-0.9l7.5,-0.5l6,0.8l7.5,6.7v4.6l3.6,4.2l3.4,10.9l2.2,6.7l1.7,3.5l-3.1,8.5l2.3,2.2l2.8,-1.2l2.5,3l4.8,5.4l-5.7,-2.2l-2.6,0.1l-1.1,4.5l0.2,5.6l3.4,2.6l2.5,-1.1l1.5,-1.2l3.2,-2.9l-0.6,6.3l-1.1,3.3l-4.2,2.9l-2.8,8.7l1.9,2.5l-1,5.2l3.9,6.3l0.4,5.9l1.4,4.2l4.9,7.7l1.9,5.8l2.7,3.2h5.6l4.1,4.6l4,-0.3l1.4,-5.6l1.3,-4.9l-1.1,-4.7l4.6,-4.9l1.4,-4.2v-4.6l2.4,-4.1l4,-1.6l3.7,-1.7l1.9,-0.3l6,-4.9l3.9,-7.6l2.9,-2.9h3.1l8.2,-2.6l7.6,-6.1l7.5,-7l-3.9,-0.4l-7.4,-0.4l3.3,-4.4l-1,-5.9l3.5,5l2.2,3.3l5,-1.6l-1.1,-7l-3.7,-5.5l-3.8,-2.3l1.4,-2.5l5.5,3.8v-4.1l-3.5,-6.5h3.9l4,-1.5l0.9,-3.5l-3.2,-4.1l6.2,-0.7l-3.7,-9.1l3,-1l-0.7,-9.6l-5.2,-6.3l4.6,-3.9l4.4,-0.5l-3.4,-8.3l0.2,-15.7l2.3,-9.6l3.3,-11.5l-6.5,-0.8l9,-2.9l1.6,-3.9L441,50.7L439.5,42.6zM166.3,106.6l0.9,-4l-3.9,-2.1l-4.1,1.4l-2.3,4.3l4.2,4.2L166.3,106.6zM45.6,263.8l-1.5,0.8l-2.5,1.9l0.4,2.4l1.4,1.3l2.8,-2l2.4,-2.5l-1.2,-1.6L45.6,263.8zM105.8,283.1l-2.7,0.4l-1.3,-0.6l-0.2,1.5l0.5,2.1l1.4,1.5l1,2.1l1.7,2.1h1.1l-2.4,-3.7L105.8,283.1zM128.9,308.2l-1.2,-2.3l-2.8,-1.8l-1.4,-2l-0.9,-1.5l-2.6,-0.5l-1.7,-0.7l-2.9,-1l-0.2,1l1.1,2.4l2.9,0.8l0.5,1.2l2.5,1.5l0.8,1.5l4.6,1.9L128.9,308.2zM305.8,317.4l1.8,1.5l-3.5,2.6l-6.2,2.4l-2.8,1.6l-3.1,2.8l-2.1,-0.3l-0.1,-3.3l4.9,-3.3l-4.5,0.1L287,322l0.5,1.3l-3,1.9l-2.9,1.3l-3,1.1l-1.5,2.3l-0.5,0.9v2l0.9,2l1.2,0.1l-0.3,-1.4l0.8,0.8l-0.2,1.1l-1.9,0.6l-1.4,-0.1l-2.1,0.6l-1.2,0.2l-1.6,0.2l-2.3,1.1l4.1,-0.7l0.8,0.7l-3.9,1.1h-1.8l0.1,-0.5l-0.9,1l0.8,0.2l-0.6,2.6l-2,2.8l-0.2,-0.9l-0.6,-0.2l-0.9,-0.9l0.6,1.9l0.7,0.6v1.4l-0.9,1.4l-1.6,2.8l-0.3,-0.1l0.9,-2.4l-1.4,-1.4l-0.3,-3l-0.5,1.5l0.6,2.3l-1.9,-0.6l1.9,1.1l0.1,3.4l0.8,0.2l0.3,1.2l0.4,3.5l-1.8,2.5l-2.9,1l-1.8,2L255,363l-1.4,1.2l-0.4,1.1l-3.1,2.2l-1.6,1.6l-1.3,1.9l-0.4,2.3l0.5,2.2l0.9,2.8l1.2,2.2v1.4l1.3,3.6l-0.1,2.1l-0.1,1.2l-0.7,1.9l-0.8,0.4l-1.4,-0.4l-0.4,-1.4l-1.1,-0.7l-1.5,-2.7l-1.3,-2.4l-0.4,-1.2l0.6,-2.1l-0.8,-1.8l-2.2,-2.7l-1.1,-0.5l-2.8,1.5l-0.5,-0.2l-1.4,-1.5l-1.8,-0.8l-3.2,0.4l-2.5,-0.4l-2.1,0.2l-1.2,0.5l0.5,0.9l-0.1,1.3l0.6,0.6l-0.5,0.4l-1,-0.5l-1.1,0.6l-2,-0.1l-2.1,-1.7l-2.4,0.4l-2,-0.7l-1.7,0.2l-2.4,0.8l-2.6,2.4l-2.8,1.4l-1.5,1.5l-0.6,1.4v2.2l0.1,1.5l0.5,1l0,0l0,0l0,0l0,0l-1.1,2.7l-0.5,2.2l-0.2,4.1l-0.3,1.5l0.5,1.6l0.9,1.5l0.6,2.3l1.9,2.2l0.6,1.7l1.1,1.5l3,0.8l1.2,1.2l2.5,-0.8l2.1,-0.3l2.1,-0.5l1.8,-0.5l1.8,-1.2l0.7,-1.7l0.2,-2.5l0.5,-0.9l1.9,-0.8l3,-0.7l2.5,0.1l1.7,-0.2l0.7,0.6l-0.1,1.4l-1.5,1.8l-0.7,1.8l0.5,0.5l-0.4,1.3l-0.7,2.3l-0.7,-0.8h-0.6v0.4h0.5v0.8l-0.5,1.3l0.2,0.5l-0.3,1l0.2,0.3l-0.3,1.5l-0.6,0.8l-0.5,0.1l-0.6,1l0.9,0.5l0.2,-0.4l0.8,0.4l0.3,0.1l0.6,-0.5h0.8l0.3,0.2l0.4,-0.1l1.3,0.3l1.3,-0.1l0.9,-0.3l0.3,-0.3l0.9,0.1l0.7,0.2l0.7,-0.1l0.6,-0.2l1.3,0.4l0.4,0.1l0.9,0.5l0.8,0.6l1,0.4l0.7,0.8l-0.2,0.3l-0.1,0.6l0.3,1l-0.6,1l-0.3,1.1l-0.1,1.3l0.2,0.7l0.1,1.3l-0.4,0.3l-0.3,1.2l0.2,0.8l-0.6,0.7l0.1,0.8l0.4,0.5l0.7,1.5l1.1,1.1l1.3,1.2l1,1l-0.1,0.6l1.1,0.1l0.3,-0.2l0.8,0.7l1.4,-0.2l1.2,-0.7l1.7,-0.6l1,-0.8l1.6,0.2l-0.1,0.3l1.6,0.1l1.3,0.5l0.9,0.8l1.1,0.8l-0.3,0.4l0.6,1.6l-0.5,0.8l-0.9,-0.2l-0.4,1.4l-0.9,-0.8l-0.6,-1.5l0.7,-0.8l-0.7,-0.2l-0.5,-0.9l-1.4,-0.8l-1.2,0.2l-0.6,1l-1.1,0.7l-0.6,0.1l-0.3,0.6l1.3,1.5l-0.8,0.4l-0.4,0.4l-1.3,0.1l-0.5,-1.7l-0.4,0.5l-0.9,-0.2l-0.6,-1.1l-1.1,-0.2l-0.7,-0.3H243l-0.1,0.6l-0.3,-0.4l-1.5,-0.6l-0.6,-0.6l0.3,-0.5l-0.1,-0.6l-0.8,-0.7l-1.1,-0.5l-1,-0.4l-0.2,-0.8l-0.7,-0.5l0.2,0.8l-0.6,0.7l-0.6,-0.8l-0.9,-0.3l-0.4,-0.6v-0.9l0.4,-0.9l-0.8,-0.4l0.6,-0.5l-1,-0.9l-1.3,-1.1l-0.6,-1l-1.2,-0.9l-1.4,-1.3l0.3,-0.4l0.5,0.4l0.2,-0.2L230,426l-0.9,-0.2l-0.3,0.7h-1.6l-1,-0.3l-1.2,-0.6l-1.6,-0.2l-0.8,-0.6l-1.4,-0.5h-1.8l-1.3,-0.6l-1.5,-1.2l-3.2,-3.1l-1.4,-0.9l-2.3,-0.8l-1.6,0.2l-2.3,1.1l-1.4,0.3l-2,-0.8l-2.1,-0.6l-2.6,-1.3l-2.1,-0.4l-3.2,-1.4l-2.3,-1.4l-0.7,-0.8l-1.6,-0.2l-2.9,-0.9l-1.2,-1.3l-3,-1.7l-1.4,-1.9l-0.7,-1.5l0.9,-0.3l-0.3,-0.9l0.6,-0.8v-1l-0.9,-1.3l-0.3,-1.2l-0.9,-1.5l-2.5,-3l-2.8,-2.4l-1.4,-1.9l-2.4,-1.3l-0.5,-0.8l0.4,-1.9l-1.4,-0.7l-1.7,-1.5l-0.7,-2.2l-1.5,-0.3l-1.6,-1.7l-1.3,-1.5l-0.1,-1l-1.5,-2.4l-1,-2.5v-1.2l-2,-1.3l-0.9,0.1l-1.6,-0.9l-0.4,1.3l0.5,1.6l0.3,2.4l1,1.3l2.1,2.2l0.5,0.8l0.4,0.2l0.4,1.1h0.5l0.6,2l0.9,0.8l0.6,1.1l1.8,1.6l0.9,2.9l0.8,1.4l0.8,1.4l0.1,1.6l1.4,0.1l1.1,1.4l1,1.4l-0.1,0.5l-1.2,1.1h-0.5l-0.7,-1.8l-1.8,-1.7l-2,-1.5l-1.4,-0.8l0.1,-2.2l-0.4,-1.7l-1.3,-1l-1.9,-1.4l-0.4,0.4l-0.7,-0.8l-1.7,-0.8l-1.6,-1.8l0.2,-0.2l1.1,0.2l1,-1.2l0.1,-1.4L153,378l-1.6,-0.9l-1,-2l-1,-2.1l-1.3,-2.6l-1.1,-2.9l0,0l-0.5,-1.7l-1.8,-1.9l-1.3,-0.4l-0.3,-1l-1.6,-0.2l-1,-0.9l-2.6,-0.3l-0.7,-0.5l-0.3,-1.9l-2.7,-3.5l-2.3,-4.9l0.1,-0.8l-1.2,-1.2l-2.2,-3l-0.4,-3l-1.5,-2l0.6,-3l-0.1,-3.2l-0.9,-2.9l1.1,-3.6l0.3,-3.5l0.3,-3.6l-0.5,-5.4l-0.9,-3.5l-0.8,-1.9l0.3,-0.8l4.1,1.4l1.5,3.9l0.7,-1.1l-0.4,-3.4l-0.9,-3.5h-0.4l-5.4,-4.2l-2,-1.9l-5.1,-1.8l-1.6,-4l0.4,-2.8l-3.6,-2l-0.5,-3.8l-3.4,-3.5l-0.1,-2.5l-1.5,-1.8l-2.5,-1.6l-0.8,-4.4l-3.6,-4.1l-1.5,-4.9l-2.7,-0.3l-4.5,-0.1L89,261l-5.8,-5.6l-2.7,-1.1l-4.9,-2l-3.9,0.5l-5.5,-2.6l-3.3,-2.4l-3.1,1.2l0.6,3.9l-1.5,0.4l-3.2,1.2l-2.5,1.9l-3.1,1.2l-0.4,-3.2l1.3,-5.5l3,-1.8l-0.8,-1.5l-3.6,3.2l-1.9,3.8l-4,4l2,2.6l-2.7,3.9l-3,2.2l-2.8,1.6l-0.7,2.3l-4.4,2.6L31,274l-3.3,2.1l-1.9,-0.4l-2.6,1.4l-2.9,1.7l-2.3,1.6l-4.8,1.4l-0.4,-0.8l3.1,-2.3l2.7,-1.5l3,-2.7l3.5,-0.6l1.4,-2.1l3.9,-3l0.6,-1l2.1,-1.8l0.5,-4l1.4,-3.2l-3.2,1.6l-0.9,-0.9l-1.5,2l-1.8,-2.7l-0.8,1.9l-1,-2.7l-2.8,2.2h-1.7l-0.2,-3.2l0.5,-2l-1.8,-2l-3.6,1.1l-2.4,-2.6l-1.9,-1.4v-3.2l-2.2,-2.5l1.1,-3.4l2.3,-3.4l1,-3.1l2.3,-0.4l1.9,1l2.3,-3l2,0.5l2.1,-2l-0.5,-2.9l-1.6,-1.2l2.1,-2.5l-1.7,0.1l-3,1.4l-0.9,1.4l-2.2,-1.4l-4,0.7l-4.1,-1.6L7.6,222l-3.5,-3.9l3.9,-2.9l6.2,-3.4h2.3l-0.4,3.5L22,215l-2.3,-4.3l-3.5,-2.7l-2,-3.6l-2.7,-3.2l-3.8,-2.4l1.6,-4l5,-0.2l3.5,-3.6l0.7,-3.9l2.9,-3.9L24,182l5.3,-3.8l2.6,0.6l4.3,-4.6l4.2,1.8l2,3.9l1.2,-1.6l4.7,0.5l-0.2,1.9l4.3,1.4l2.9,-0.8l5.9,2.6l5.4,0.8l2.2,1.1l3.7,-1.3l4.2,2.5l3.1,1.1L85,190l4.4,3.8l2.9,0.7l2.5,-3.3l3.4,-2.5l4.2,1l4.2,-3.6l4.6,-2.1l1.9,3.4l2.1,-1.9l0.6,-3.9l1.9,0.9l4.7,7.3l3.7,-5.5l0.4,6.1l3.4,-1.3l1.1,-2.4l3.4,0.5l4.3,3.4l6.6,2.9l3.9,1.3l2.8,-0.5l3.8,3.9L152,202l5.1,1.6l7.6,-0.9l2.4,-1.3l3,4.4l3.1,-3.7l-2.9,-3.2l1.8,-2.6l3.4,-0.4l2.2,-0.8l2.3,1.8l2.8,4.1l3.1,-0.6l4.9,3.4l4.4,-1.2l4.1,0.2l-0.3,-4.7l2.5,-1.3l4.3,2.6v7l1.8,-5.9l2.3,0.2l1.3,-7.7l-3,-4.9l-3.3,-3.3l0.2,-9.3l3.3,-6.4l3.7,1.4l2.8,3.9l3.8,9.6l-2.5,4l5.2,1.6v8l3.8,-6.1l3.4,5l-0.8,5.6l2.7,4.9l2.9,-5.3l2,-6.6l0.1,-8.7l4,0.6l4.1,1.2l3.8,3.9l0.2,3.9l-2.1,4.1l2,4l-0.4,3.5l-5.5,5l-3.9,1.1l-2.9,-2.1l-0.8,3.5l-2.7,5.7l-0.8,2.9l-3.2,4.4l-4,0.4l-2.2,2.7l-0.2,4.1l-3.3,0.8l-3.4,4.9l-3,6.6l-1.1,4.5l-0.1,6.4l4.1,0.9l1.3,5l1.3,4l3.9,-1l5.2,2.2l2.8,1.9l2,2.4l3.5,1.4l3,2.1l4.6,0.3l3.1,0.5l-0.5,4.2l0.9,4.8l2,5.2l4.2,4.3l2.2,-1.5l1.5,-4.7l-1.5,-7.4l-2,-2.5l4.5,-2.3l3.2,-3.5l1.5,-3.5l-0.2,-3.4l-1.9,-4.4l-3.4,-4l3.3,-5.8l-1.2,-5.1l-0.9,-9.2l2,-1.4l4.8,1.6l2.9,0.6l2.3,-1.6l2.6,2l3.5,3.4l0.9,2.3l5,0.4l-0.1,4.8l0.9,7l2.6,0.9l2,3.2l4.1,-3l2.7,-6.1l1.9,-2.6l2.2,5l3.6,6.9l3.1,6.3l-1.1,3.2l3.7,2.8l2.5,2.8l4.5,1.3l1.8,1.5l1.1,4l2.2,0.6l1.1,1.8l0.2,5.2l-2,1.7l-2,1.6l-4.6,1.6l-3.5,3.6l-4.7,0.7l-6,-0.9h-4.2l-2.9,0.3l-2.4,3.1l-3.6,1.9l-4,5.6l-3.2,3.8l2.4,-0.7l4.5,-5.5l5.9,-3.5l4.2,-0.4l2.5,2.1l-2.6,2.8l0.9,4.5l0.9,3.1l3.6,2l4.6,-0.6l2.8,-4.6L305.8,317.4zM199.9,184.4l-2,3.5l-2.5,2.5l3.8,3.5l2.3,-0.9l3.8,2.4l1.7,-2.7l-1.7,-3l-0.8,-1.5l-1.7,-1.5L199.9,184.4zM239.8,238.5l0.6,1.6l2,0.1l3.3,-3.3l0.1,-1.2l-3.9,-0.1L239.8,238.5zM251.9,243.4l1.1,-3.1l-0.7,-1.2l-1.1,-0.1l-1.1,1.8l-0.1,0.4l0.7,1.8L251.9,243.4zM202.9,154.5l-0.7,-2.9l-5,1.3l-3.3,-2.1l-3.3,4.8l3.1,6.3l-5.7,-1.2l-0.1,3l7,7.1l1.9,3.4l2.7,0.7l4.6,-3.4l0.5,-8.2l-4.2,-4.1L202.9,154.5zM192.1,185.4l-5.1,-3.9l-4.7,-4.2l-0.9,-6.2l-1.8,-8.9l-3.1,-3.8l-2.8,-1.6l-2.5,1.4l2,9.6l-1.4,3.7l-2.3,-9l-2.6,-3.1l-3.2,4.8l-3.9,-4.8l-6.2,2.9l1.4,-4.5l-2.9,-1.9l-7.5,5.8l-1.9,3.7l-2.4,6.8l4.9,2.3l4.3,-0.1l-6.5,3.5l1.5,3.1l4,0.2l6,-0.7l5.4,2l-3.7,1.4l-3.9,-0.4l-4.3,1.4l-1.9,0.9l3.4,6.4l2.5,-0.9l3.8,2.1l1.5,3.6l5,-0.7l7.1,-1.2l5.3,-2.6l3.3,-0.5l4.8,2.1l5.1,1.2l0.9,-2.9l-1.8,-3.1l4.6,-0.6L192.1,185.4zM250.6,230.6l-2,-2.1l-2.1,0.5l-0.2,-3.1l-3.2,-2l-3.1,-2.3l-1.6,-1.8l-1.4,1l-0.5,-3l-2,-0.6l-1,6.1l-0.4,5.1l-2.4,3.1l3.8,-0.6l1,3.6l4,-3.2l2.8,-3.4l1.6,2.9l4.4,1.5L250.6,230.6zM222.4,51.3l2.3,7.3l5,5.9l9.8,-1.1l6.3,2l-4.4,6.1l-2.2,-1.8l-7.7,-0.7l1.2,8.3l4,6l-0.8,5.2l-5,3.5l-2.3,5.5l4.6,2.7l3.8,8.6l-7.5,-5.7l-1.7,0.9l1.4,9.4l-5.2,2.8l0.4,5.8l5.3,0.6l4.2,1.4l8.2,-1.8l7.3,3.3l7.5,-7.2l-0.1,-3l-4.8,0.5l-0.4,-2.8l3.9,-3.8l1.3,-5.2l4.3,-3.8l2.7,-4.8l-2.3,-7.1l1.9,-2.7l-3.9,-1.9l8.5,-1.6l1.8,-3.2l5.8,-2.6l4.8,-13.5l4.6,-4.9l6.6,-11.1l-6.1,0.1l2.5,-4.3l6.8,-4l6.8,-8.9l0.1,-5.7l-5.1,-6l-6,-2.9l-7.5,-1.8l-6.1,-1.5l-6.1,-1.5l-8.1,4l-1.5,-2.5l-8.6,1l-5,2.6L244,19l-2.1,11.7l-3.1,-6l-3.5,-1.1l-4.1,8l-5.5,3.4l-3.3,0.7l-4.2,3.8l0.6,6.7L222.4,51.3zM167.8,94.2l-3.6,-2.9l-1.5,-0.7l-2.9,4.3l-0.1,2h4.7L167.8,94.2zM284.8,184.6l-2.4,-3.4l-6.8,-3.4l-2.9,-5.6l-5.2,2l-0.4,-3.9l-3.9,-4.3l-6.2,-4.7l-2.6,3.7l-5.6,2.7l0.4,-6.1l-4.8,-10.1l-7.1,4.1l-2.6,7.7l-2.2,-5.9l2.1,-6.4l-7.2,2.6l-2.9,4l-2.1,8.4l0.9,9.1h4l-2.9,3.9l2.3,3l4.6,1.2l5.9,2.4l10.2,1.8l5.1,-1l1.5,-2.4l2.2,2.8l2.5,0.5l3,5l-1.8,2l5.7,2.6l4.3,3.7l1.1,2.6l0.8,3.2l-3.6,6.9l-1,3.4l0.9,2.4l-5.8,0.9l-5.3,0.1l-1.9,4.9l2.4,2.2l8.1,-1v-1.9l4.1,3.1l4.2,3.3l-1,1.8l3.4,3l6,3.5l7.6,2.4l-0.5,-2.1l-2.9,-3.7l-4,-5.4l7,5l3.5,1.7l1,-4.4l-1.8,-6.3l-1.2,-1.7l-3.8,-3l-3,-3.9l0.4,-3.9l3.6,-0.9l4.4,6.6l3.5,2.9l4.9,-7.9l0.9,-4.9l-4.4,-0.5l-4,-6.7l-4.5,-1.6l-6.6,-5l5.1,-3.6L284.8,184.6zM264.4,205.4l0.3,-1v-3.2l-2.2,-2.1l-2.6,1.1l-1.2,4.2l0.7,3.6l3.1,-0.4L264.4,205.4zM182.2,155l-2.1,-2.2l-3.8,0.4l-0.9,1.4l4.4,6.8L182.2,155zM195.4,139.8l4.6,-1.1l1.3,-8.2l-0.1,-5.9l-2.1,-5.6l-0.2,1.6l-3.9,-0.7l-4.2,4.1l-3,-0.4l0.2,8.9l4.6,-0.9l-0.1,6.5L195.4,139.8zM248.5,155.8l3.1,5.1l0.8,0.6l3.1,-1.3l3,0.2l3,0.3l-0.2,-2.6l-4.8,-5.4l-6.4,-1.1l-1.4,0.7L248.5,155.8zM200.1,101.4l2.3,3.1l4.1,-2.8l0.8,-5l-3.4,-4.9l-1.6,-1l-3.6,-0.6l0.2,5.9L200.1,101.4zM183.1,93.1l-2.7,4.2l6.2,0.5l4.6,4.4l4.6,1.5l-1.1,-5.7l-2.1,-6.7L185,86l-5.5,-2l0.2,5.7L183.1,93.1zM209,82.9l5.1,-0.1l-2.2,4v5.3l3,5.8l5.8,1.8l5,-1l5.2,-10.7l3.9,-4.4l-3.4,-5l-2.2,-10.7l-4.6,-3.2l-4.7,-3.7l-3.6,-9.6l-6.5,0.9l1.2,4.2l-2.9,1.2L206,63l-1.9,7.5l1.8,7.3L209,82.9zM210.9,168.1l3,-6.9l3.3,-1.9l4.2,-8.7l-5.4,-2.5l-5.8,-0.4l-2.8,2.8l-1.5,4.2v4.8l1.8,8.2L210.9,168.1zM212.1,108.9l0.3,-1.5l-2,-2.4l-5.6,-0.2l0.8,3.7l5.2,0.8L212.1,108.9zM211.2,143.1l1.5,-4.1l-1,-3.5l-2.4,-3.9l-4,3l-1.5,4.9l3.4,2.8L211.2,143.1zM228.1,145.1l5.8,-0.2l8,-1.6l3.6,1.3l4.2,-2.3l1.8,-2.8l-0.6,-4.5l-3,-4.2l-4.6,-0.8l-5.7,1l-4.5,2.4l-4.1,-0.9l-3.8,-0.5l-1.8,-2.7l-3.2,-2.6l0.6,-4.4l-2.4,-4h-5.5l-3.1,-4l-5.8,-0.8l-1.1,5.1l3.2,3.7l5.8,1.4l2.8,5.1l0.3,5.6l1,6l7.4,3.4L228.1,145.1zM302.3,433.2l1.6,-0.4l0.6,0.1l-0.1,2.1l-2.3,0.3l-0.5,-0.2l0.8,-0.8L302.3,433.2z"/>
        <path id="south america 1 " title="null" class="land" d="M311.1,629.8l2.2,2l-0.8,1.6l-3.8,1.4l-1.3,-1.6l-2.4,2l-1.4,-2l3.4,-2.7l2.4,1.1L311.1,629.8zM285.3,642.4l-1.4,-3.5l-1.1,-2.2l-2,-0.5l-2.6,1.9l-0.9,3.2l-1.5,2.2l-3.7,-1.7l-3.9,-3.1l-2.3,-1l3.9,5.2l2.9,2.6l3.5,2.7l2.9,0.7l2,1.5l1.7,0.4l1.4,0.2l2.4,-1.5l0.9,-2l1.4,1.7l2.7,-0.2l1.3,-2.4l-3.9,-1.2L285.3,642.4zM377.4,482.2l-1,-3.6l-1,-0.9l-2.4,-0.1l-2.2,-0.8l-3.6,-3.1l-4.2,-2.3l-4.2,0.1l-5.5,-1.5l-3.3,0.9l0.5,-1.5l-1.4,-1.6l-4.7,-1.7l-3.5,-1l-2.1,1.8l-0.1,-2.8l-5,-0.4l-0.9,-0.8l2.1,-2.3l-0.1,-1.9l-1.5,-0.5l-1.6,-4.9l-0.7,-1.5l-1,0.1l0,0l-1.6,2.5l-0.8,2.1l-1.1,1.1l-1.3,0.2l-0.4,-0.8l-0.6,-0.1l-0.9,0.8l-1.2,-0.6l0.7,-1.2l0.2,-1.3l0.5,-1.2l-1.1,-1.6l-0.2,-1.9l1.4,-2.4l-3,-0.7l-2.3,0.2l-0.3,0.5l-3.4,-0.6l-1.1,-1l-1.5,-1.4l-1.1,-0.1l-0.1,-1.5l-1.7,-1.8l-1.8,-1l-1.1,-0.7l-1.5,0.1l-0.5,-2.3l-2.1,-1.4l-2.2,-0.2l-1,-1.3l2.4,-0.8h-3.4l-3.5,0.2v0.7l-1.6,0.9l-2.1,-0.3l-1.6,-1.3l-3,0.3h-2.5l-0.1,-0.9l-1.8,-1.6h-2l-1,-2l-1,0.9l0.4,1.3l-3.5,1.1l0.1,2.2l0.9,1l-0.6,2l-1.2,0.2l-1.1,-2.2l1.2,-1.6v-1.5l-0.9,-1.3l1.6,-0.3l0.1,-0.7l0.5,-1l-0.7,-0.8l-1,-0.2l-1.4,1.4l-1.1,0.6l-2.2,1.4l-2.2,-0.2l-0.2,0.6h-1.8l-1.6,1.3l-0.5,2.4v0.9l-1.1,0.3l-2.1,2l-1.5,-0.1l-0.3,0.4l0.6,1.7l-0.5,0.8l-0.9,-0.2l-0.4,1.4l1.1,1.5l0.4,2.4l-0.6,0.7l0.6,2.6l0.2,1.5l1,0.7l-1.1,1.5l-1.2,1.8l-1.4,0.2l-0.7,1l0.1,1.4l-1,0.2l0.4,0.9l-1.9,1.1l-1.5,0.6l0.2,1.1l-1.1,1.8l-0.5,1.7l-1,0.4l0.5,2.5l-0.6,0.8l1.7,1.2l1.1,-1.3l0.6,1.2l-1.5,2.1l-2.2,1.8l-0.9,2l1.4,2.7l-0.9,1.2l2,1.1l2.2,1.8l0.9,2.1l1.1,1.3l2.7,5.6l2.8,5.2l2.4,3.8l-0.5,0.8l1.2,2.4l2.2,1.8l5,3.2l5.6,2.9l0.2,1.2l2.8,1.7l0.6,4.2l0.2,4.9l-0.9,6.8l-0.9,6.4l-0.5,6l-1.6,3.9l0.3,4l-0.8,2.7l0.7,4.9l-1.2,5l-1.9,5.4l-1.7,5.6l-1.2,0.1l0.2,4l0.8,3.5l-1.3,2.5l-1,6.8l-0.9,5.4l1.8,0.5l0.9,-4.8l1.9,1l-1.5,8l-3.1,-1.4l-1,6.6l-2.7,3.6l4.3,1.2l-3,3.2l-1.2,4l0.4,7.3l1.4,2.9l-0.8,2.6l0.9,2.9l3.5,2.6l3.2,3.2l3.2,1.5l1.2,-0.1l0.5,-4.4l2.5,-1.7l1.4,-1.1h2.5l1.2,0.2l-1.9,-2.6l-0.9,-4.6l1.2,-2.1l2.6,-1.7l1.8,-5l3.3,-2.4l1,-3.7l-2.7,-0.8l-2.8,-3l0.8,-3l2.2,-2h2.7l0.7,-2.1l0.4,-3.9l2.2,-2.4l2.6,-1.2l-0.8,-2l-1.5,1.2l-1.9,-1.1l-0.4,-3.7l1.1,-1l2.7,1.3l2.9,-0.5l1.7,-1.3L301,586l0.6,-2.7l-0.6,-2.2l3.1,0.4l5.6,-0.8l4.2,-1.9l2.7,-4.5l0.1,-1.7l-1.8,-1.5l0.4,-2.4l-3.6,-2.9l0.2,-1.8l1.7,1.9l1.9,-0.1l2.6,1.5l1.5,-0.4l2.1,0.7l3.2,-1.9l1.2,-2.1l1.9,-1.9l1.3,-3.2l1.9,-1.5l2.5,-2.6l3.1,-5.7l2,-1.8l0.6,-1.5l0.5,-3.2l-0.5,-1.7l0.4,-2.3l2.4,-3.1l3.3,-2.4l3.1,-0.9l2,-1.3l4.4,-1.2h3l0.7,-1.8l2.3,-1.3l0.5,-3.1l2.8,-3.9l0.5,-3.9l0.9,-1.2l0.3,-1.9l0.8,-4.5l-0.2,-5.4l0.8,-2.1l0.7,-0.1l2.1,-2.5l1.8,-3.2l4,-3.9l1.4,-1.8l1.1,-4.6L377.4,482.2z"/>
        <path id="africa" title="null" class="land" d="M618.4,432.1v1.5l-0.6,1l-0.8,3.1l-1.3,3.1l-1.7,3.6l-2.4,4.1l-2.4,3.1l-3.3,3.8l-2.8,2.3l-4.2,2.8l-2.6,2.1l-3.1,3.4l-0.7,1.5l-0.6,0.7l-2,1.1l-0.7,1.2l-1,0.2l-0.4,2l-0.9,1.1l-0.5,1.9l-1.1,0.9l-1.3,3.5l0.2,1.6l1.8,1l0.1,0.7l-0.8,1.7l0.2,0.9l-0.2,1.3l1,1.8l1.2,2.8l1,0.6l0.5,1.3l-0.1,2.8l0.3,2.5l0.1,4.5l0.5,1.4l-0.8,2.1l-1.1,2l-1.8,1.8l-2.6,1.1l-3.2,1.4l-3.2,3.2l-1.1,0.5l-2,2.1l-1.2,0.7l-0.2,2.1l1.3,2.3l0.5,1.8v0.9l0.5,-0.2l-0.1,3l-0.5,1.4l0.7,0.5l-0.4,1.3l-1.2,1.1l-2.3,1l-3.4,1.7l-1.2,1.1l0.2,1.3l0.7,0.2l-0.2,1.6l-0.7,2.3l-0.3,2.6l-0.7,1.4l-1.9,1.6l-0.5,0.5l-1.2,1.6l-0.8,1.7l-1.6,2.3l-3.2,3.4l-2,2l-2.1,1.5l-2.9,1.3l-1.4,0.2l-0.4,0.9l-1.7,-0.5l-1.4,0.6l-3,-0.7l-1.7,0.4l-1.2,-0.2l-2.9,1.3l-2.4,0.5l-1.7,1.3l-1.3,0.1l-1.2,-1.2l-1,-0.1l-1.2,-1.5l-0.1,0.5l-0.4,-0.9v-2l-0.9,-2.2l0.9,-0.6l-0.1,-2.5l-1.8,-3l-1.4,-2.7l0,0l-2,-4.2l-2.1,-2.4l-1.1,-2.3l-0.6,-3l-0.7,-2.2l-0.9,-4.7l-0.1,-3.6l-0.4,-1.6l-1.1,-1.2l-1.5,-2.5l-1.5,-3.6l-0.6,-1.8l-2.3,-2.9l-0.2,-2.2l-0.3,-1.8l0.4,-2.5l1,-2.6l0.1,-1.2l0.9,-2.6l0.7,-1.2l1.6,-1.9l0.9,-1.3l0.3,-2.1l-0.2,-1.6l-0.8,-1l-0.8,-1.7l-0.7,-1.7l0.1,-0.6l0.9,-1.1l-0.8,-2.7l-0.6,-1.9l-1.4,-1.8l0.3,-0.5l-0.4,-0.9l-0.8,-2.1l-2.3,-3l-2.9,-2.8l-1.9,-2.3l-1.7,-2.9l0.1,-0.9l0.6,-0.9l0.7,-2l0.6,-2.1l-0.5,-0.4l1,-3.1l0.4,-2.2l-1.1,-1.8L500,453l-0.6,-1.2l-0.7,-0.4v-0.8l-2.9,1l-1.1,-0.2l-1.1,0.6l-2.2,-0.1l-1.5,-1.8l-0.9,-2l-2,-1.9h-2.1h-2.5l-2.3,0.3l-2.3,0.6l-4.4,1.6l-1.6,1l-2.5,0.8l-2.5,-0.8h-1.3l-2,-0.5h-1.8l-3.3,0.5l-2,0.8l-2.8,1l-0.5,-0.1h-0.7L450,450l-2.5,-2.1l-2.4,-1.5l-1.9,-1.8l-0.8,-0.2l-2,-1.1l-1.5,-1.5l-0.5,-1l-0.3,-2.1l-1.2,-1.7l-1.1,-1.1l-0.7,-0.4l-0.7,-0.6l-0.3,-1.2l-0.4,-0.6l-0.8,-0.5l-1.5,-1.2l-1.2,-0.2l-0.6,-0.8V430l-0.8,-0.6l-0.2,-0.6l-0.5,-2.2l0.4,-1.3l-1.2,-2.2l-1.4,-1l1.2,-0.5l1.4,-2l0.7,-1.5l-0.2,-1.6l0.8,-1.4l0.3,-2.8l-0.3,-2.9l-0.3,-1.5l0.3,-1.5l-0.7,-1.4l-1.5,-1.3v-0.1l0.6,-1h11l-0.5,-4.3l0.7,-1.5l2.6,-0.3l-0.1,-7.9l9.2,0.2V384l0.1,-0.6v-0.2l-12.3,-0.1l0,0h3.6h8.8h-8.8h-3.6l1.2,-1.1l2.6,-0.3l2.2,-2.2l1.4,-0.8l2.3,-2.7l-0.7,-4l1.1,-2.8l0.4,-1.7l1.8,-2.2l2.8,-1.5l2.1,-1.4l1.9,-3.5l0.9,-2.1h2.1l1.7,1.5l2.7,-0.2l2.9,0.8h1.2l2.7,-1.9l3,-0.6l1.8,-1.4l2.7,-1.1l4.8,-0.6l4.6,-0.3l1.4,0.5l2.6,-1.4h3l1.1,0.8l1.9,-0.2l3,-1.4l2,0.4l-0.1,1.8l2.4,-1.3l0.2,0.7l-1.4,1.7v1.6l1,0.9l-0.4,3l-1.9,1.7l0.5,1.8l1.5,0.1l0.7,1.6l1.1,0.5l3.3,1.2l1.2,-0.3l2.3,0.5l3.7,1.5l1.3,2.9l2.5,0.6l4,1.4l3,1.6l1.4,-0.8l1.3,-1.5l-0.7,-2.5l0.9,-1.6l2,-1.5l1.9,-0.5l3.8,0.7l1,1.5h1l0.9,0.6l2.8,0.4l0.7,1.1h3.7l2.7,0.9l2.8,1l1.3,0.5l2.2,-1l1.2,-0.9l2.5,-0.3l2,0.4l0.8,1.6l0.7,-1.1l2.2,0.8l2.2,0.2l1.4,-0.8l1.8,5.6l-0.8,1.3l-0.6,2.4l-0.8,1.6l-0.7,0.5l-0.9,-1l-1.3,-1.4l-2,-4.6l-0.3,0.3l1.2,3.4l1.7,3.2l2.1,4.9l1,1.7l0.9,1.7l2.5,3.4l-0.6,0.5l0.1,2l3.3,2.7l0.5,0.6l0.9,2.9l-0.6,0.5l0.4,3.1l1,3.5l1.1,0.7l1.5,1.1l1.6,3.4l0.8,2.7l1.5,1.4l3.8,2.7l1.6,1.6l1.5,1.7l0.9,1l1.4,0.9l0.7,0.9l-0.1,1.2l-1.6,0.7l1.2,0.8l0.9,0.5l0.5,1.2l1.3,1.2h1.4l2.6,-0.7l3,-0.3l2.5,-0.9l1.4,-0.2l1,-0.5l1.6,-0.1l0.9,-0.1l1.3,-0.4l1.5,-0.3l1.3,-1h1.1l0.1,0.8L618.4,432.1zM615.6,501.5l-0.7,-1.9l-0.7,-1.2l-1,-1.2l-0.9,1.3v1.7l-1.5,2l-1.2,-0.3l0.4,1.2l-0.8,1.5l-2.3,1.8l-1.6,1.7h-1.2l-1,0.5l-1.6,0.6l-1.4,0.1l-0.4,1.8l-1,1.6l0.2,2.7l0.5,1.8l0.7,1.4l-0.2,1.9l-1.3,2.3v1l-1.3,0.5l-0.5,2.2l0.3,2.2l1,2.4l0.2,2.7l0.8,1.6l2.2,1.1l1.6,0.8l2.5,-1.3l2.3,-0.7l1.3,-3.5l1.1,-4.2l1.7,-5.7l1.4,-4.1l1.1,-3.4l0.2,-2.5l0.8,-0.7l0.2,-1.2l-0.5,-2.2l0.5,-0.9l1,1.7l0.5,-0.8l0.3,-1.4l-0.7,-1.4L615.6,501.5z"/>
        <path id="australia" title="null" class="land" d="M944.1,508.2l1.8,1.7l-0.9,0.4l-1,-1.3L944.1,508.2zM942.9,507.6l0.6,-0.2l0.8,0.4l-0.5,-2.3l-1.3,-0.9l0.1,2.2L942.9,507.6zM670.3,620.4l-1.8,-1.3l-0.2,0.9l-0.4,1.8l0.1,2.3l4.3,-0.3l0.8,-2L673,621L670.3,620.4zM924.9,489.7l-1.8,-0.4l-0.2,1.1l0.6,0.4l1.7,0.3l1.1,-0.1l-0.5,-0.7L924.9,489.7zM914.2,481.8l-0.1,0.5l1.2,1.1l1.2,0.6l0.6,-0.2l-1.1,-0.9L914.2,481.8zM923.5,486.7l-0.7,-0.9l-2.3,-1.3l-1.3,-0.7l-0.4,0.3l1,0.9l1.5,1l2.2,1.2V486.7zM929.2,492.6l-1.7,-0.7l1.1,1.7h2l-0.8,-1H929.2zM928.2,490.8l0.4,-0.5l-1.1,-1.4l-1,-2.2h-1l0.6,1.7L928.2,490.8zM870.7,488.9l2.9,0.1l1.6,0.5l2.2,-1l-0.4,-2.1l1.7,-0.9l2.4,-0.8l3.7,1.2l1.5,2.5l1.6,1.5l2.2,1.8l2.8,0.4l2.4,0.3l0.7,0.7l1.9,-0.2l0.3,-0.8l-3,-1.2l0.8,-0.5l-2.2,-0.5l0.1,-1.2l-1.6,0.1l-1.8,-3L888,484l-0.6,-1.9l2.6,-0.3l-0.7,-1.5l-4.7,-1.7l-0.4,-1.6l-1.6,-1.4l-1.9,-1.4l-5.2,-1.6l-4.9,-1.9v9.1L870.7,488.9zM895,481h1.5l1.4,-0.7l1.5,-0.7l0.4,-0.8l1.5,-0.2l0.9,-1.7l0.1,-1.5l-0.6,-0.5H900l0.3,1.6l-1.6,1l-0.8,1l-1.6,0.2l-0.3,-1.5l-0.4,0.1l-0.4,1.3l-1.5,0.2l-2.5,-0.4l-0.2,0.9l1.6,0.8L895,481zM901.3,473l1.3,0.9l0.7,1.1l0.5,1.6l0.9,-0.7l-0.3,-1.5l-1.1,-0.9l-1.1,-1.2l-1.2,-0.7l-1,-0.6l-1.5,-0.8l-0.8,0.7l2,0.8L901.3,473zM910,478.9l-0.8,-0.6l-0.3,-0.8l-0.4,0.3l0.6,2.1l1.2,1.8l1.2,1.1l0.8,-0.3l0.4,-0.8l-1.3,-1L910,478.9zM963,588.7l-2,1.5l-0.6,-1.5l-0.6,-1.6l-2,1.7l-0.4,2.1l-1.1,1l-1.2,2.8l-1.7,2l-2.4,2l-2,1.5l-1.8,0.7l-3.5,3.9l-1.5,3l0.5,1.5l3,0.3l1.8,1.3l2.6,0.1l1.4,-1.2l2.2,-1.8l1.6,-4l0.8,-2.6l2.4,-1.5h2.2l-1,-1.9l1.4,-1.5l1.8,-2.8l1,-1.7v-1.6L963,588.7zM972.8,577.9l-1.9,-0.3l-2.3,-1.2l-0.4,-2.7l-1.3,-1l-0.1,2.4l-2,-3.7l-0.8,-3.1l-2.2,-0.9l-1.5,-1.9l-1,0.3l1.2,2.4l2.2,3l1.3,1.4l-0.1,0.6l1.1,2.3l0.1,2.3l-0.5,2.7l-2,1.2l-0.1,1.3l3,1.5l0.9,2l-1.6,3l1.2,0.5l0.5,1l2.2,-1.5l1.4,-2.5l1.1,-2l0.4,-0.7l-0.3,-1.6l0.8,-1.1l2.1,0.1l0.8,-2.1l0.7,-3.2l-1.4,-0.4L972.8,577.9zM943.8,526.7l-1.5,-1.4l-2.3,-1.9l-0.9,-0.8l-1.2,-1l-1.6,-1h-1.2l0.4,1l1.9,2.1l1.8,1.6l2,1.3l1.5,0.8L943.8,526.7zM980,508.7l-1.6,0.9l-0.9,0.2l-1.4,0.6l0.4,1.1l1.8,-0.6l1.8,-0.7l0.2,-0.2l0.3,-1.4L980,508.7zM974.7,512.9l-1.3,-0.4l-1.1,1l0.3,1.3l1.5,0.4l1.7,-0.4l0.5,-1.5l-1,-0.8L974.7,512.9zM889.3,588.2l-2.2,0.7l-1.5,0.5l-2.7,-1.3l-1.8,-0.3l-0.1,1.7l1.6,3.2l0.4,2.5l1.7,3.3l1.7,0.1l0.6,0.2l2,-2.7l1,1l0.3,-3.1l1,-1.3l-0.2,-4.4L889.3,588.2zM904.7,540.5l-0.1,-1.8l-0.8,-2.5l-2.2,-2.5l-1.3,-1.2l-2,-1.9l-0.5,-3.2l-0.7,0.5l-1.1,-1.3l-1.1,0.7l-1.1,-3.2l-1.6,-1.9l0.4,-0.7l-1.9,-1.3l-2,-1.4l-3,-1.5l-0.9,-2l0.3,-1.5l-0.8,-2.5l-0.7,-0.4l-0.4,-1.5l-0.6,-2.5l0.3,-1.3l-1.3,-1.1l-0.9,-1.2l-1.8,1.1l-1,-2.2l0.1,-1l-0.2,-1.6l-1,-1.5l-0.1,-1.2l-0.7,-0.3l-0.2,-1.8l-0.8,-1.4l-1,1.1l-0.1,0.8l-0.5,1.6l-0.7,1.5l0.4,1l-0.5,0.6l-0.4,2.2l0.3,1.6l-0.2,0.8l0.4,1.4l-0.8,2.3l-0.3,1.6l-0.6,1.3l-0.5,1.6l-1.8,1l-2.7,-1l-0.4,-0.9l-1.5,-0.8H863l-2,-1.7l-1.4,-1l-2.2,-0.9l-2.2,-1.6l-0.2,-0.8l1,-1.4l0.8,-1.4l-0.3,-1.1l1,-0.1l1.1,-1.2l0.8,-1.5l-1.3,-1.4l-0.7,0.5l-1,-0.2l-1.6,0.8l-1.7,-0.9l-0.8,0.3l-2.4,-0.7l-1.5,-1.2l-1.9,-0.7l-1.5,0.4l2,0.9v1.5l-2.4,0.5l-1.4,-0.3l-1.7,1l-1.2,1.6l0.4,0.7l-1.3,0.8l-1.3,2.3l0.6,1.6l-1.8,-0.3h-1.8l-1.6,-1.7l-2.1,-1.3L830,503l-1.2,0.4v0.7l-1.2,-0.3v0.8l-1.4,0.5l-0.7,1.1l-1.5,1.4l-0.3,2.2l-1.2,-0.6l-0.9,1.4l1,1.4l-1.2,0.6l-1.2,-2.5l-2,2.5l-0.1,1.6l-0.1,1.2l-1.6,1.5l-0.7,1.6l-1.5,1.3l-3,0.9l-1.5,-0.1l-0.7,0.3l-0.4,0.7l-1.7,0.3l-2.2,1.1l-0.8,-0.4l-1.3,0.2l-2.1,1.1l-1.4,1.3l-2.3,1l-1.2,2.1l-0.2,-2.3l-1.2,2.2l0.3,1.8l-0.4,1.5l-0.6,0.8l-0.3,1.8l0.7,0.9l0.3,1l1.4,2.4v1.6l-0.8,-1.2l-1.4,-0.9l1,2.9l-1.2,-1.3l0.4,1.3l1.6,2.5l0.3,2.5l1.2,1.3l0.1,0.9l1.1,2.1l-0.1,1.8l0.5,1.8l1.5,3.3l0.3,2l-0.3,2.3l0.1,1.2l-0.5,0.8l-1.4,0.5l-0.1,1.9l1.5,0.6l3,2.2h1.9l2,0.1l1.3,-1.1l1.4,-1l0.8,0.2l1.7,-1.8l1.9,-0.2l2,-0.4l2.5,0.6l1.8,-0.3l2.4,-0.1l1,-1.4l0.5,-1.8l2.4,-0.8l3,-1.7l2.7,0.2l3.2,-1.1l3.6,-1.2l5,-0.3l2.7,1.6l2,0.1l3.6,2l-0.5,0.8l1.5,1.2l1.8,2.4l-0.1,1.8l2.2,1.4l1.1,-2.7l1.8,-1.2l2.3,-2.8l0.2,2.5l-1.1,1.7l-0.4,2l-1.5,1.9l2.5,-0.6l1.4,-2.3l0.7,2.5l-0.9,1.7l2.7,0.4l1.4,1.4l0.7,1.8l0.5,2.7l1.8,2.2l2.7,1l1.6,0.2l1.6,0.6l2.4,1l2.5,-2.6l1.5,-0.7l-0.4,1.8l1.7,0.6l2.3,1.6l1.7,-1.5l1.3,-1.4l2.6,-1.5l3.1,-0.1l1.6,-1.2l-0.1,-1.1l0.4,-2.4l0.7,-2.6l1.1,-1.7l0.8,-2.9l0.9,-1.7l1,-2.6l2.1,-1.6l1.2,-3l0.5,-2.3l-0.1,-1.9l0.8,-2.9l0.5,-1.5l0.2,-2.8l-1.3,-2.7L904.7,540.5z"/>
    </g>
</svg>